<?xml version="1.0" encoding="UTF-8"?>
<svg width="433px" height="335px" viewBox="0 0 433 335" version="1.1" xmlns="http://www.w3.org/2000/svg" xmlns:xlink="http://www.w3.org/1999/xlink" style="background: #CCCCCC;">
    <!-- Generator: Sketch 49 (51002) - http://www.bohemiancoding.com/sketch -->
    <title>Artboard Copy 6</title>
    <desc>Created with Sketch.</desc>
    <defs></defs>
    <g id="Artboard-Copy-6" stroke="none" stroke-width="1" fill="none" fill-rule="evenodd">
        <path d="M127.039062,161.007812 C127.039062,162.817717 126.511724,164.324864 125.457031,165.529297 C124.402338,166.73373 122.917978,167.544269 121.003906,167.960938 L121.003906,168.117188 C123.295584,168.403647 125.014317,169.116531 126.160156,170.255859 C127.305995,171.395188 127.878906,172.908845 127.878906,174.796875 C127.878906,177.544285 126.908864,179.663404 124.96875,181.154297 C123.028636,182.64519 120.268247,183.390625 116.6875,183.390625 C113.523422,183.390625 110.854178,182.876307 108.679688,181.847656 L108.679688,177.765625 C109.890631,178.364586 111.17317,178.826821 112.527344,179.152344 C113.881517,179.477866 115.183588,179.640625 116.433594,179.640625 C118.647146,179.640625 120.300776,179.230473 121.394531,178.410156 C122.488287,177.58984 123.035156,176.320321 123.035156,174.601562 C123.035156,173.078117 122.429694,171.958337 121.21875,171.242188 C120.007806,170.526038 118.106784,170.167969 115.515625,170.167969 L113.035156,170.167969 L113.035156,166.4375 L115.554688,166.4375 C120.112002,166.4375 122.390625,164.861995 122.390625,161.710938 C122.390625,160.486973 121.993494,159.542972 121.199219,158.878906 C120.404944,158.21484 119.233081,157.882812 117.683594,157.882812 C116.602859,157.882812 115.561203,158.035806 114.558594,158.341797 C113.555985,158.647788 112.371101,159.243485 111.003906,160.128906 L108.757812,156.925781 C111.375013,154.998688 114.415347,154.035156 117.878906,154.035156 C120.756525,154.035156 123.002596,154.65364 124.617188,155.890625 C126.231779,157.12761 127.039062,158.833322 127.039062,161.007812 Z M155.960938,176.769531 L152.113281,176.769531 L152.113281,183 L147.640625,183 L147.640625,176.769531 L134.59375,176.769531 L134.59375,173.234375 L147.640625,154.367188 L152.113281,154.367188 L152.113281,172.960938 L155.960938,172.960938 L155.960938,176.769531 Z M147.640625,172.960938 L147.640625,165.792969 C147.640625,163.240873 147.705729,161.15105 147.835938,159.523438 L147.679688,159.523438 C147.315102,160.382817 146.742191,161.424473 145.960938,162.648438 L138.871094,172.960938 L147.640625,172.960938 Z M172.109375,165.167969 C174.986994,165.167969 177.265617,165.92968 178.945312,167.453125 C180.625008,168.97657 181.464844,171.053372 181.464844,173.683594 C181.464844,176.730484 180.511077,179.110017 178.603516,180.822266 C176.695954,182.534514 173.984393,183.390625 170.46875,183.390625 C167.27863,183.390625 164.772145,182.876307 162.949219,181.847656 L162.949219,177.6875 C164.003912,178.286461 165.214837,178.748696 166.582031,179.074219 C167.949226,179.399741 169.218744,179.5625 170.390625,179.5625 C172.460948,179.5625 174.036453,179.100265 175.117188,178.175781 C176.197922,177.251297 176.738281,175.897144 176.738281,174.113281 C176.738281,170.701806 174.563824,168.996094 170.214844,168.996094 C169.602862,168.996094 168.847661,169.057942 167.949219,169.181641 C167.050777,169.305339 166.263024,169.445312 165.585938,169.601562 L163.535156,168.390625 L164.628906,154.445312 L179.472656,154.445312 L179.472656,158.527344 L168.671875,158.527344 L168.027344,165.597656 C168.483075,165.519531 169.03971,165.428386 169.697266,165.324219 C170.354821,165.220052 171.158849,165.167969 172.109375,165.167969 Z M226.691406,183 L221.320312,183 L214.171875,171.320312 L206.964844,183 L201.964844,183 L211.4375,168.195312 L202.570312,154.445312 L207.765625,154.445312 L214.367188,165.246094 L220.96875,154.445312 L226.007812,154.445312 L217.082031,168.273438 L226.691406,183 Z M265.199219,161.007812 C265.199219,162.817717 264.67188,164.324864 263.617188,165.529297 C262.562495,166.73373 261.078135,167.544269 259.164062,167.960938 L259.164062,168.117188 C261.455741,168.403647 263.174473,169.116531 264.320312,170.255859 C265.466152,171.395188 266.039062,172.908845 266.039062,174.796875 C266.039062,177.544285 265.06902,179.663404 263.128906,181.154297 C261.188792,182.64519 258.428403,183.390625 254.847656,183.390625 C251.683578,183.390625 249.014334,182.876307 246.839844,181.847656 L246.839844,177.765625 C248.050787,178.364586 249.333327,178.826821 250.6875,179.152344 C252.041673,179.477866 253.343744,179.640625 254.59375,179.640625 C256.807303,179.640625 258.460932,179.230473 259.554688,178.410156 C260.648443,177.58984 261.195312,176.320321 261.195312,174.601562 C261.195312,173.078117 260.58985,171.958337 259.378906,171.242188 C258.167963,170.526038 256.26694,170.167969 253.675781,170.167969 L251.195313,170.167969 L251.195313,166.4375 L253.714844,166.4375 C258.272158,166.4375 260.550781,164.861995 260.550781,161.710938 C260.550781,160.486973 260.15365,159.542972 259.359375,158.878906 C258.5651,158.21484 257.393237,157.882812 255.84375,157.882812 C254.763015,157.882812 253.721359,158.035806 252.71875,158.341797 C251.716141,158.647788 250.531257,159.243485 249.164063,160.128906 L246.917969,156.925781 C249.535169,154.998688 252.575504,154.035156 256.039062,154.035156 C258.916681,154.035156 261.162752,154.65364 262.777344,155.890625 C264.391935,157.12761 265.199219,158.833322 265.199219,161.007812 Z M276.992188,183 L288.28125,158.527344 L273.4375,158.527344 L273.4375,154.484375 L293.183594,154.484375 L293.183594,157.6875 L281.953125,183 L276.992188,183 Z M319.9375,168.722656 C319.9375,173.683619 319.139982,177.368478 317.544922,179.777344 C315.949862,182.18621 313.511735,183.390625 310.230469,183.390625 C307.05337,183.390625 304.644539,182.147148 303.003906,179.660156 C301.363273,177.173165 300.542969,173.527368 300.542969,168.722656 C300.542969,163.683569 301.340487,159.969413 302.935547,157.580078 C304.530607,155.190743 306.962223,153.996094 310.230469,153.996094 C313.420589,153.996094 315.835929,155.246081 317.476562,157.746094 C319.117196,160.246106 319.9375,163.904924 319.9375,168.722656 Z M305.191406,168.722656 C305.191406,172.615905 305.591793,175.395825 306.392578,177.0625 C307.193363,178.729175 308.472647,179.5625 310.230469,179.5625 C311.98829,179.5625 313.274084,178.716154 314.087891,177.023438 C314.901697,175.330721 315.308594,172.563821 315.308594,168.722656 C315.308594,164.894512 314.901697,162.124358 314.087891,160.412109 C313.274084,158.699861 311.98829,157.84375 310.230469,157.84375 C308.472647,157.84375 307.193363,158.683585 306.392578,160.363281 C305.591793,162.042977 305.191406,164.829408 305.191406,168.722656 Z" id="345-X-370" fill="#989898"></path>
    </g>
</svg>