<?xml version="1.0" encoding="UTF-8"?>
<svg width="433px" height="335px" viewBox="0 0 433 335" version="1.1" xmlns="http://www.w3.org/2000/svg" xmlns:xlink="http://www.w3.org/1999/xlink" style="background: #CCCCCC;">
    <!-- Generator: Sketch 49 (51002) - http://www.bohemiancoding.com/sketch -->
    <title>Artboard Copy 3</title>
    <desc>Created with Sketch.</desc>
    <defs></defs>
    <g id="Artboard-Copy-3" stroke="none" stroke-width="1" fill="none" fill-rule="evenodd">
        <path d="M129.128906,176.769531 L125.28125,176.769531 L125.28125,183 L120.808594,183 L120.808594,176.769531 L107.761719,176.769531 L107.761719,173.234375 L120.808594,154.367188 L125.28125,154.367188 L125.28125,172.960938 L129.128906,172.960938 L129.128906,176.769531 Z M120.808594,172.960938 L120.808594,165.792969 C120.808594,163.240873 120.873697,161.15105 121.003906,159.523438 L120.847656,159.523438 C120.483071,160.382817 119.91016,161.424473 119.128906,162.648438 L112.039062,172.960938 L120.808594,172.960938 Z M153.871094,161.007812 C153.871094,162.817717 153.343755,164.324864 152.289062,165.529297 C151.23437,166.73373 149.75001,167.544269 147.835938,167.960938 L147.835938,168.117188 C150.127616,168.403647 151.846348,169.116531 152.992188,170.255859 C154.138027,171.395188 154.710938,172.908845 154.710938,174.796875 C154.710938,177.544285 153.740895,179.663404 151.800781,181.154297 C149.860667,182.64519 147.100278,183.390625 143.519531,183.390625 C140.355453,183.390625 137.686209,182.876307 135.511719,181.847656 L135.511719,177.765625 C136.722662,178.364586 138.005202,178.826821 139.359375,179.152344 C140.713548,179.477866 142.015619,179.640625 143.265625,179.640625 C145.479178,179.640625 147.132807,179.230473 148.226562,178.410156 C149.320318,177.58984 149.867188,176.320321 149.867188,174.601562 C149.867188,173.078117 149.261725,171.958337 148.050781,171.242188 C146.839838,170.526038 144.938815,170.167969 142.347656,170.167969 L139.867188,170.167969 L139.867188,166.4375 L142.386719,166.4375 C146.944033,166.4375 149.222656,164.861995 149.222656,161.710938 C149.222656,160.486973 148.825525,159.542972 148.03125,158.878906 C147.236975,158.21484 146.065112,157.882812 144.515625,157.882812 C143.43489,157.882812 142.393234,158.035806 141.390625,158.341797 C140.388016,158.647788 139.203132,159.243485 137.835938,160.128906 L135.589844,156.925781 C138.207044,154.998688 141.247379,154.035156 144.710938,154.035156 C147.588556,154.035156 149.834627,154.65364 151.449219,155.890625 C153.06381,157.12761 153.871094,158.833322 153.871094,161.007812 Z M180.703125,161.007812 C180.703125,162.817717 180.175787,164.324864 179.121094,165.529297 C178.066401,166.73373 176.582041,167.544269 174.667969,167.960938 L174.667969,168.117188 C176.959647,168.403647 178.67838,169.116531 179.824219,170.255859 C180.970058,171.395188 181.542969,172.908845 181.542969,174.796875 C181.542969,177.544285 180.572926,179.663404 178.632812,181.154297 C176.692699,182.64519 173.93231,183.390625 170.351562,183.390625 C167.187484,183.390625 164.51824,182.876307 162.34375,181.847656 L162.34375,177.765625 C163.554694,178.364586 164.837233,178.826821 166.191406,179.152344 C167.54558,179.477866 168.84765,179.640625 170.097656,179.640625 C172.311209,179.640625 173.964838,179.230473 175.058594,178.410156 C176.152349,177.58984 176.699219,176.320321 176.699219,174.601562 C176.699219,173.078117 176.093756,171.958337 174.882812,171.242188 C173.671869,170.526038 171.770846,170.167969 169.179688,170.167969 L166.699219,170.167969 L166.699219,166.4375 L169.21875,166.4375 C173.776064,166.4375 176.054688,164.861995 176.054688,161.710938 C176.054688,160.486973 175.657556,159.542972 174.863281,158.878906 C174.069006,158.21484 172.897143,157.882812 171.347656,157.882812 C170.266922,157.882812 169.225265,158.035806 168.222656,158.341797 C167.220047,158.647788 166.035163,159.243485 164.667969,160.128906 L162.421875,156.925781 C165.039076,154.998688 168.07941,154.035156 171.542969,154.035156 C174.420587,154.035156 176.666659,154.65364 178.28125,155.890625 C179.895841,157.12761 180.703125,158.833322 180.703125,161.007812 Z M226.691406,183 L221.320312,183 L214.171875,171.320312 L206.964844,183 L201.964844,183 L211.4375,168.195312 L202.570312,154.445312 L207.765625,154.445312 L214.367188,165.246094 L220.96875,154.445312 L226.007812,154.445312 L217.082031,168.273438 L226.691406,183 Z M265.199219,161.007812 C265.199219,162.817717 264.67188,164.324864 263.617188,165.529297 C262.562495,166.73373 261.078135,167.544269 259.164062,167.960938 L259.164062,168.117188 C261.455741,168.403647 263.174473,169.116531 264.320312,170.255859 C265.466152,171.395188 266.039062,172.908845 266.039062,174.796875 C266.039062,177.544285 265.06902,179.663404 263.128906,181.154297 C261.188792,182.64519 258.428403,183.390625 254.847656,183.390625 C251.683578,183.390625 249.014334,182.876307 246.839844,181.847656 L246.839844,177.765625 C248.050787,178.364586 249.333327,178.826821 250.6875,179.152344 C252.041673,179.477866 253.343744,179.640625 254.59375,179.640625 C256.807303,179.640625 258.460932,179.230473 259.554688,178.410156 C260.648443,177.58984 261.195312,176.320321 261.195312,174.601562 C261.195312,173.078117 260.58985,171.958337 259.378906,171.242188 C258.167963,170.526038 256.26694,170.167969 253.675781,170.167969 L251.195312,170.167969 L251.195312,166.4375 L253.714844,166.4375 C258.272158,166.4375 260.550781,164.861995 260.550781,161.710938 C260.550781,160.486973 260.15365,159.542972 259.359375,158.878906 C258.5651,158.21484 257.393237,157.882812 255.84375,157.882812 C254.763015,157.882812 253.721359,158.035806 252.71875,158.341797 C251.716141,158.647788 250.531257,159.243485 249.164062,160.128906 L246.917969,156.925781 C249.535169,154.998688 252.575504,154.035156 256.039062,154.035156 C258.916681,154.035156 261.162752,154.65364 262.777344,155.890625 C264.391935,157.12761 265.199219,158.833322 265.199219,161.007812 Z M292.03125,161.007812 C292.03125,162.817717 291.503912,164.324864 290.449219,165.529297 C289.394526,166.73373 287.910166,167.544269 285.996094,167.960938 L285.996094,168.117188 C288.287772,168.403647 290.006505,169.116531 291.152344,170.255859 C292.298183,171.395188 292.871094,172.908845 292.871094,174.796875 C292.871094,177.544285 291.901051,179.663404 289.960938,181.154297 C288.020824,182.64519 285.260435,183.390625 281.679688,183.390625 C278.515609,183.390625 275.846365,182.876307 273.671875,181.847656 L273.671875,177.765625 C274.882819,178.364586 276.165358,178.826821 277.519531,179.152344 C278.873705,179.477866 280.175775,179.640625 281.425781,179.640625 C283.639334,179.640625 285.292963,179.230473 286.386719,178.410156 C287.480474,177.58984 288.027344,176.320321 288.027344,174.601562 C288.027344,173.078117 287.421881,171.958337 286.210938,171.242188 C284.999994,170.526038 283.098971,170.167969 280.507812,170.167969 L278.027344,170.167969 L278.027344,166.4375 L280.546875,166.4375 C285.104189,166.4375 287.382812,164.861995 287.382812,161.710938 C287.382812,160.486973 286.985681,159.542972 286.191406,158.878906 C285.397131,158.21484 284.225268,157.882812 282.675781,157.882812 C281.595047,157.882812 280.55339,158.035806 279.550781,158.341797 C278.548172,158.647788 277.363288,159.243485 275.996094,160.128906 L273.75,156.925781 C276.367201,154.998688 279.407535,154.035156 282.871094,154.035156 C285.748712,154.035156 287.994784,154.65364 289.609375,155.890625 C291.223966,157.12761 292.03125,158.833322 292.03125,161.007812 Z M310.269531,165.167969 C313.14715,165.167969 315.425773,165.92968 317.105469,167.453125 C318.785165,168.97657 319.625,171.053372 319.625,173.683594 C319.625,176.730484 318.671233,179.110017 316.763672,180.822266 C314.85611,182.534514 312.144549,183.390625 308.628906,183.390625 C305.438786,183.390625 302.932301,182.876307 301.109375,181.847656 L301.109375,177.6875 C302.164068,178.286461 303.374993,178.748696 304.742188,179.074219 C306.109382,179.399741 307.3789,179.5625 308.550781,179.5625 C310.621104,179.5625 312.196609,179.100265 313.277344,178.175781 C314.358078,177.251297 314.898438,175.897144 314.898438,174.113281 C314.898438,170.701806 312.72398,168.996094 308.375,168.996094 C307.763018,168.996094 307.007817,169.057942 306.109375,169.181641 C305.210933,169.305339 304.42318,169.445312 303.746094,169.601562 L301.695312,168.390625 L302.789062,154.445312 L317.632812,154.445312 L317.632812,158.527344 L306.832031,158.527344 L306.1875,165.597656 C306.643231,165.519531 307.199867,165.428386 307.857422,165.324219 C308.514977,165.220052 309.319006,165.167969 310.269531,165.167969 Z" id="433-X-335" fill="#989898"></path>
    </g>
</svg>