<?xml version="1.0" standalone="no"?>
<!DOCTYPE svg PUBLIC "-//W3C//DTD SVG 20010904//EN"
 "http://www.w3.org/TR/2001/REC-SVG-20010904/DTD/svg10.dtd">
<svg version="1.0" xmlns="http://www.w3.org/2000/svg"
 width="512.000000pt" height="512.000000pt" viewBox="0 0 512.000000 512.000000"
 preserveAspectRatio="xMidYMid meet">
<metadata>
Created by potrace 1.11, written by Peter Selinger 2001-2013
</metadata>
<g transform="translate(0.000000,512.000000) scale(0.100000,-0.100000)"
fill="#000000" stroke="none">
<path d="M2483 4673 c-28 -49 -60 -104 -71 -123 -31 -55 -573 -982 -593 -1015
-11 -16 -22 -37 -26 -45 -4 -8 -39 -69 -78 -135 -39 -66 -149 -254 -244 -417
l-173 -298 -329 0 -329 0 -10 -22 c-5 -13 -74 -133 -153 -268 l-145 -245 324
-5 324 -5 -48 -80 c-27 -44 -62 -105 -79 -135 -16 -30 -58 -102 -93 -160 -35
-58 -68 -114 -74 -125 -9 -17 -486 -833 -517 -885 -32 -54 -133 -229 -144
-250 l-13 -25 2555 -3 2554 -3 -37 58 c-20 32 -78 123 -129 203 -50 80 -110
175 -133 211 -23 37 -50 68 -60 71 -9 2 -857 3 -1884 3 -1028 0 -1868 3 -1868
8 0 4 74 134 164 290 90 155 172 297 182 314 11 18 105 180 209 359 105 180
202 348 216 374 15 25 37 64 51 86 13 21 28 46 31 54 4 8 17 31 28 50 57 94
241 411 369 635 10 17 57 98 105 180 98 168 219 375 245 420 9 17 65 113 125
215 59 102 116 200 127 219 l19 34 -28 46 c-16 25 -91 148 -167 274 -76 125
-141 227 -145 227 -4 0 -30 -39 -58 -87z"/>
<path d="M2989 3728 c-39 -68 -115 -197 -169 -288 -53 -91 -107 -183 -120
-205 -12 -22 -59 -101 -103 -175 -44 -74 -87 -148 -97 -165 -9 -16 -79 -136
-155 -265 -76 -129 -153 -260 -170 -290 -18 -30 -101 -172 -185 -315 -84 -143
-163 -278 -175 -300 -13 -22 -68 -116 -123 -210 -55 -93 -99 -172 -96 -174 6
-6 2973 -7 2970 -1 -10 18 -211 355 -269 450 -38 63 -78 131 -89 150 -11 19
-38 64 -60 100 l-40 65 -291 -2 c-161 -1 -302 -2 -315 -2 -21 -1 -18 -7 33
-86 30 -47 51 -86 47 -87 -32 -6 -972 -2 -972 5 0 5 48 90 106 190 59 100 119
205 135 232 15 28 70 123 122 213 l95 163 35 -43 36 -43 326 -1 325 -1 -18 31
c-10 17 -61 102 -113 188 -52 86 -98 166 -104 178 -5 11 -13 20 -17 20 -5 0
-8 4 -8 9 0 6 -454 767 -465 779 -2 2 -36 -52 -76 -120z"/>
</g>
</svg>
