<?xml version="1.0" encoding="UTF-8"?>
<svg width="73px" height="23px" viewBox="0 0 73 23" version="1.1" xmlns="http://www.w3.org/2000/svg" xmlns:xlink="http://www.w3.org/1999/xlink">
    <!-- Generator: Sketch 49 (51002) - http://www.bohemiancoding.com/sketch -->
    <title>logo</title>
    <desc>Created with Sketch.</desc>
    <defs>
        <polygon id="path-1" points="0 0.0628685939 17.7663999 0.0628685939 17.7663999 21.2311925 0 21.2311925"></polygon>
        <polygon id="path-3" points="0.0132496709 0.0845951886 11.83496 0.0845951886 11.83496 22.3682355 0.0132496709 22.3682355"></polygon>
    </defs>
    <g id="Page-1" stroke="none" stroke-width="1" fill="none" fill-rule="evenodd">
        <g id="Desktop-HD-Copy-2" transform="translate(-70.000000, -6657.000000)">
            <g id="logo" transform="translate(70.000000, 6657.000000)">
                <g id="Page-1">
                    <g id="Group-3" transform="translate(0.000000, 0.771668)">
                        <mask id="mask-2" fill="white">
                            <use xlink:href="#path-1"></use>
                        </mask>
                        <g id="Clip-2"></g>
                        <path d="M15.545899,14.4416027 C14.764753,12.8314291 14.0324764,11.3219519 13.249167,9.70704678 C12.460767,11.3352973 11.7232726,12.8583623 10.9566347,14.4416027 L15.545899,14.4416027 Z M10.168871,0.0628685939 C12.7314574,5.37382106 15.2335933,10.5593275 17.7663999,15.8087702 L8.75802317,15.8087702 C8.86836099,15.5610325 8.9589729,15.3426545 9.06154762,15.1294933 C10.1122386,12.9457135 11.1568208,10.7591434 12.2257105,8.58337076 C12.3930626,8.24257979 12.4206789,7.96948599 12.2455637,7.62177972 C11.5584658,6.25788791 10.9033111,4.87919494 10.1849063,3.40029073 C10.0498792,3.65275994 9.94730452,3.82976742 9.85834704,4.01284096 C7.24345523,9.39974044 4.62996331,14.7872465 2.01596234,20.1746313 C1.45943721,21.3214796 1.45892815,21.3213583 -2.54527845e-05,21.1472625 C3.37679547,14.1457005 6.74356254,7.16500578 10.168871,0.0628685939 Z" id="Fill-1" fill="#F3F8FF" mask="url(#mask-2)"></path>
                    </g>
                    <g id="Group-6" transform="translate(13.755733, 0.000000)">
                        <mask id="mask-4" fill="white">
                            <use xlink:href="#path-3"></use>
                        </mask>
                        <g id="Clip-5"></g>
                        <path d="M11.8349974,22.2949882 C11.7614574,22.3227767 11.7431347,22.3349496 11.7240641,22.3361792 C10.4044567,22.4208973 10.4037089,22.4211432 9.85141074,21.2417289 C6.65927461,14.4249306 3.46751241,7.60800927 0.276248782,0.790719097 C0.183014974,0.591526938 0.0980076783,0.388646035 0.0132496709,0.196462489 C0.0770674647,0.155640392 0.0922740484,0.137934422 0.108851717,0.136458925 C1.47619781,0.0143615088 1.47719496,0.0139926344 2.03921534,1.22008886 C5.21863777,8.04254327 8.39756162,14.8652436 11.575613,21.6884358 C11.6682236,21.887382 11.7484944,22.0918614 11.8349974,22.2949882" id="Fill-4" fill="#F3F8FF" mask="url(#mask-4)"></path>
                    </g>
                    <path d="M6.11365902,21.6067102 C6.27947709,21.1708566 6.38685108,20.7800565 6.57132676,20.4472648 C6.67066933,20.2679142 6.90148017,20.0796392 7.07359981,20.0787756 C11.0203663,20.058192 14.9671327,20.058192 18.9137756,20.0790635 C19.0852775,20.0799271 19.3143585,20.2723764 19.4139482,20.4525906 C19.5975589,20.7849505 19.7049329,21.1744551 19.8693918,21.6067102 L6.11365902,21.6067102 Z" id="Fill-7" fill="#F3F8FF"></path>
                </g>
                <path d="M40.0027627,15.3142703 C40.0299832,15.3963247 40.0435932,15.4829365 40.0435932,15.5741081 C40.0435932,15.7564514 39.9823481,15.9068823 39.8598559,16.0254054 C39.7373638,16.1439285 39.5944584,16.2031892 39.4311356,16.2031892 C39.3041067,16.2031892 39.1884214,16.1644418 39.0840763,16.0869459 C38.9797311,16.0094501 38.8958026,15.902325 38.8322881,15.7655676 L37.9884576,13.7552432 L33.7829153,13.7552432 L32.9526949,15.7792432 C32.9073275,15.9160007 32.8324723,16.0208465 32.7281271,16.0937838 C32.623782,16.1667211 32.5080967,16.2031892 32.3810678,16.2031892 C32.1905245,16.2031892 32.0453508,16.1530455 31.9455424,16.0527568 C31.845734,15.952468 31.7958305,15.8157126 31.7958305,15.6424865 C31.7958305,15.6060178 31.8049039,15.5330816 31.8230508,15.4236757 L35.2936441,6.97210811 C35.3571585,6.8262335 35.4456237,6.71454994 35.5590424,6.63705405 C35.672461,6.55955817 35.8017563,6.52992784 35.9469322,6.54816216 C36.0830346,6.54816216 36.2055249,6.58463027 36.3144068,6.65756757 C36.4232887,6.73050487 36.5004122,6.83535067 36.5457797,6.97210811 L40.0027627,15.3142703 Z M34.3001017,12.5107568 L37.4712712,12.5107568 L35.8788814,8.68156757 L34.3001017,12.5107568 Z M50.2623559,15.0681081 C50.3530908,15.1319282 50.4256777,15.2117022 50.4801186,15.3074324 C50.5345596,15.4031626 50.5617796,15.5011707 50.5617796,15.6014595 C50.5617796,15.7929199 50.5005345,15.9342338 50.3780423,16.0254054 C50.2555502,16.116577 50.1081082,16.1621622 49.9357118,16.1621622 C49.7633155,16.1621622 49.6181418,16.1256941 49.5001864,16.0527568 C49.2279816,15.897765 49.0056844,15.6470468 48.8332881,15.3005946 C48.6608918,14.9541424 48.5746949,14.443589 48.5746949,13.7689189 C48.5746949,13.3130608 48.4385945,12.9757308 48.1663898,12.7569189 C47.894185,12.538107 47.5403242,12.4287027 47.1047966,12.4287027 L44.3555423,12.4287027 L44.3555423,15.5057297 C44.3555423,15.6971901 44.3011022,15.8544588 44.1922203,15.9775405 C44.0833384,16.1006222 43.9427014,16.1621622 43.770305,16.1621622 C43.5616147,16.1621622 43.382416,16.098343 43.2327033,15.9707027 C43.0829907,15.8430624 43.0081356,15.688073 43.0081356,15.5057297 L43.0081356,7.24562162 C43.0081356,7.06327837 43.071649,6.90828893 43.1986779,6.78064865 C43.3257068,6.65300837 43.4799539,6.58918919 43.6614237,6.58918919 L47.4858813,6.58918919 C47.9758499,6.58918919 48.424981,6.70998978 48.8332881,6.95159459 C49.2415952,7.19319941 49.568236,7.52597085 49.8132203,7.94991892 C50.0582046,8.37386698 50.1806949,8.85023159 50.1806949,9.37902703 C50.1806949,9.88958814 50.0445945,10.3659527 49.7723898,10.8081351 C49.500185,11.2503175 49.1508608,11.5808097 48.7244067,11.7996216 C49.0601259,11.9728477 49.3255216,12.2144489 49.5206017,12.5244324 C49.7156817,12.834416 49.8222937,13.1945385 49.8404406,13.6048108 C49.8767346,14.1244891 49.9175647,14.4777738 49.9629322,14.6646757 C50.0082996,14.8515775 50.1081065,14.9860536 50.2623559,15.0681081 Z M47.458661,11.2936216 C47.6854983,11.2753873 47.9009905,11.184217 48.105144,11.0201081 C48.3092976,10.8559992 48.4748863,10.6349113 48.6019152,10.3568378 C48.7289441,10.0787644 48.7924576,9.76650624 48.7924576,9.42005405 C48.7924576,8.98243024 48.6586256,8.61091144 48.3909576,8.30548649 C48.1232896,8.00006154 47.7989171,7.84735135 47.4178305,7.84735135 L44.3555423,7.84735135 L44.3555423,11.2936216 L47.458661,11.2936216 Z M57.8543558,6.58918919 C58.7072641,6.58918919 59.4376692,6.8034393 60.0455931,7.23194595 C60.6535171,7.66045259 61.1117215,8.23710448 61.4202203,8.96191892 C61.728719,9.68673335 61.882966,10.4913109 61.882966,11.3756757 C61.882966,12.2691576 61.728719,13.0782937 61.4202203,13.8031081 C61.1117215,14.5279225 60.6535171,15.1022952 60.0455931,15.5262432 C59.4376692,15.9501913 58.7072641,16.1621622 57.8543558,16.1621622 L54.5062542,16.1621622 C54.3247843,16.1621622 54.1705373,16.098343 54.0435084,15.9707027 C53.9164795,15.8430624 53.852966,15.688073 53.852966,15.5057297 L53.852966,7.24562162 C53.852966,7.06327837 53.9164795,6.90828893 54.0435084,6.78064865 C54.1705373,6.65300837 54.3247843,6.58918919 54.5062542,6.58918919 L57.8543558,6.58918919 Z M57.7182542,14.904 C58.6437503,14.904 59.337862,14.5735078 59.8006101,13.9125135 C60.2633582,13.2515192 60.4947287,12.4059151 60.4947287,11.3756757 C60.4947287,10.3545535 60.2610898,9.51122855 59.793805,8.84567568 C59.3265202,8.1801228 58.6346768,7.84735135 57.7182542,7.84735135 L55.2003728,7.84735135 L55.2003728,14.904 L57.7182542,14.904 Z M72.5236439,15.3142703 C72.5508644,15.3963247 72.5644745,15.4829365 72.5644745,15.5741081 C72.5644745,15.7564514 72.5032293,15.9068823 72.3807372,16.0254054 C72.258245,16.1439285 72.1153397,16.2031892 71.9520168,16.2031892 C71.8249879,16.2031892 71.7093027,16.1644418 71.6049575,16.0869459 C71.5006123,16.0094501 71.4166838,15.902325 71.3531694,15.7655676 L70.5093389,13.7552432 L66.3037965,13.7552432 L65.4735761,15.7792432 C65.4282087,15.9160007 65.3533535,16.0208465 65.2490084,16.0937838 C65.1446632,16.1667211 65.0289779,16.2031892 64.901949,16.2031892 C64.7114057,16.2031892 64.566232,16.1530455 64.4664236,16.0527568 C64.3666152,15.952468 64.3167117,15.8157126 64.3167117,15.6424865 C64.3167117,15.6060178 64.3257851,15.5330816 64.3439321,15.4236757 L67.8145253,6.97210811 C67.8780397,6.8262335 67.966505,6.71454994 68.0799236,6.63705405 C68.1933423,6.55955817 68.3226376,6.52992784 68.4678134,6.54816216 C68.6039158,6.54816216 68.7264061,6.58463027 68.835288,6.65756757 C68.9441699,6.73050487 69.0212934,6.83535067 69.0666609,6.97210811 L72.5236439,15.3142703 Z M66.8209829,12.5107568 L69.9921524,12.5107568 L68.3997626,8.68156757 L66.8209829,12.5107568 Z" id="ARDA" fill="#F3F8FF"></path>
            </g>
        </g>
    </g>
</svg>