<?xml version="1.0" encoding="UTF-8"?>
<svg width="347px" height="372px" viewBox="0 0 347 372" version="1.1" xmlns="http://www.w3.org/2000/svg" xmlns:xlink="http://www.w3.org/1999/xlink">
    <!-- Generator: Sketch 49 (51002) - http://www.bohemiancoding.com/sketch -->
    <title>illustration-5</title>
    <desc>Created with Sketch.</desc>
    <defs></defs>
    <g id="Page-1" stroke="none" stroke-width="1" fill="none" fill-rule="evenodd">
        <g id="Desktop-HD-Copy" transform="translate(-757.000000, -177.000000)">
            <g id="illustration-5" transform="translate(758.000000, 178.000000)">
                <path d="M31,203 L31,173" id="Stroke-254" stroke="#FFFFFF" stroke-width="2" stroke-linecap="round" stroke-linejoin="round"></path>
                <path d="M119,311 L84,292" id="Stroke-256" stroke="#FFFFFF" stroke-width="2" stroke-linecap="round" stroke-linejoin="round"></path>
                <path d="M249,298 L223,313" id="Stroke-258" stroke="#FFFFFF" stroke-width="2" stroke-linecap="round" stroke-linejoin="round"></path>
                <path d="M309,173 L309,203" id="Stroke-260" stroke="#FFFFFF" stroke-width="2" stroke-linecap="round" stroke-linejoin="round"></path>
                <path d="M223,54 L249,69" id="Stroke-262" stroke="#FFFFFF" stroke-width="2" stroke-linecap="round" stroke-linejoin="round"></path>
                <path d="M75,79 L119,54" id="Stroke-264" stroke="#FFFFFF" stroke-width="2" stroke-linecap="round" stroke-linejoin="round"></path>
                <polygon id="Fill-266" fill="#FFFFFF" points="203.909091 341.6 203.909091 299 140.090909 299 140.090909 341.6 133 362.9 138.318182 370 205.681818 370 211 362.9"></polygon>
                <polygon id="Fill-268" fill="#CCEFFF" points="204 299 204 342 140 342"></polygon>
                <polygon id="Fill-270" fill="#CCEFFF" points="133 363 138.318182 370 205.681818 370 211 363"></polygon>
                <polygon id="Stroke-272" stroke="#4A587E" stroke-width="2" stroke-linecap="round" stroke-linejoin="round" points="140 342 204 342 204 299 140 299"></polygon>
                <polyline id="Stroke-274" stroke="#4A587E" stroke-width="2" stroke-linecap="round" stroke-linejoin="round" points="203.909091 342 211 363 133 363 140.090909 342"></polyline>
                <polygon id="Stroke-275" stroke="#4A587E" stroke-width="2" stroke-linecap="round" stroke-linejoin="round" points="133 363 138.318182 370 205.681818 370 211 363"></polygon>
                <polyline id="Stroke-276" stroke="#4A587E" stroke-width="2" stroke-linecap="round" stroke-linejoin="round" points="162 362 165.5 355 179.5 355 183 362"></polyline>
                <polygon id="Fill-277" fill="#FFFFFF" points="338 157 271 157 278.052632 142 330.947368 142"></polygon>
                <polygon id="Fill-278" fill="#FFFFFF" points="345 124.235294 345 74 267 74 267 124.235294 298.909091 124.235294 298.909091 129.617647 291.818182 135 320.181818 135 313.090909 129.617647 313.090909 124.235294"></polygon>
                <polygon id="Fill-279" fill="#CCEFFF" points="345 74 267 113 345 113"></polygon>
                <polygon id="Stroke-280" stroke="#4A587E" stroke-width="2" stroke-linecap="round" stroke-linejoin="round" points="267 123 345 123 345 74 267 74"></polygon>
                <path d="M267,114 L345,114" id="Stroke-281" stroke="#4A587E" stroke-width="2" stroke-linecap="round" stroke-linejoin="round"></path>
                <polyline id="Stroke-282" stroke="#4A587E" stroke-width="2" stroke-linecap="round" stroke-linejoin="round" points="313 124 313 129 320 134 292 134 299 129 299 124"></polyline>
                <polygon id="Stroke-283" stroke="#4A587E" stroke-width="2" stroke-linecap="round" stroke-linejoin="round" points="338 157 271 157 278.052632 142 330.947368 142"></polygon>
                <path d="M281,150 L284,150" id="Stroke-284" stroke="#4A587E" stroke-width="2" stroke-linecap="round" stroke-linejoin="round"></path>
                <path d="M292,150 L295,150" id="Stroke-285" stroke="#4A587E" stroke-width="2" stroke-linecap="round" stroke-linejoin="round"></path>
                <path d="M302,150 L305,150" id="Stroke-286" stroke="#4A587E" stroke-width="2" stroke-linecap="round" stroke-linejoin="round"></path>
                <path d="M314,150 L317,150" id="Stroke-287" stroke="#4A587E" stroke-width="2" stroke-linecap="round" stroke-linejoin="round"></path>
                <path d="M324,150 L327,150" id="Stroke-288" stroke="#4A587E" stroke-width="2" stroke-linecap="round" stroke-linejoin="round"></path>
                <polygon id="Fill-289" fill="#FFFFFF" points="0 299 64 299 64 217 0 217"></polygon>
                <path d="M42.6666667,248.736842 L49.7777778,248.736842 L49.7777778,241.684211 L42.6666667,241.684211 L42.6666667,248.736842 Z M28.4444444,262.842105 L35.5555556,262.842105 L35.5555556,255.789474 L28.4444444,255.789474 L28.4444444,262.842105 Z M0,284 L64,284 L64,217 L0,284 Z" id="Fill-290" fill="#CCEFFF"></path>
                <polygon id="Stroke-291" stroke="#4A587E" stroke-width="2" stroke-linecap="round" stroke-linejoin="round" points="15 235 22 235 22 228 15 228"></polygon>
                <polygon id="Stroke-292" stroke="#4A587E" stroke-width="2" stroke-linecap="round" stroke-linejoin="round" points="28 235 35 235 35 228 28 228"></polygon>
                <polygon id="Stroke-293" stroke="#4A587E" stroke-width="2" stroke-linecap="round" stroke-linejoin="round" points="15 249 22 249 22 242 15 242"></polygon>
                <polygon id="Stroke-294" stroke="#4A587E" stroke-width="2" stroke-linecap="round" stroke-linejoin="round" points="28 249 35 249 35 242 28 242"></polygon>
                <polygon id="Stroke-295" stroke="#4A587E" stroke-width="2" stroke-linecap="round" stroke-linejoin="round" points="15 263 22 263 22 256 15 256"></polygon>
                <polygon id="Stroke-296" stroke="#4A587E" stroke-width="2" stroke-linecap="round" stroke-linejoin="round" points="43 235 50 235 50 228 43 228"></polygon>
                <polygon id="Stroke-297" stroke="#4A587E" stroke-width="2" stroke-linecap="round" stroke-linejoin="round" points="43 249 50 249 50 242 43 242"></polygon>
                <polygon id="Stroke-298" stroke="#4A587E" stroke-width="2" stroke-linecap="round" stroke-linejoin="round" points="28 263 35 263 35 256 28 256"></polygon>
                <polygon id="Stroke-299" stroke="#4A587E" stroke-width="2" stroke-linecap="round" stroke-linejoin="round" points="0 299 64 299 64 217 0 217"></polygon>
                <path d="M64,285 L0,285" id="Stroke-300" stroke="#4A587E" stroke-width="2" stroke-linecap="round" stroke-linejoin="round"></path>
                <path d="M28,292 L35,292" id="Stroke-301" stroke="#4A587E" stroke-width="2" stroke-linecap="round" stroke-linejoin="round"></path>
                <polygon id="Fill-302" fill="#FFFFFF" points="262 287 344 287 344 223 262 223"></polygon>
                <path d="M304.782609,279 L333.304348,279 L333.304348,272 L304.782609,272 L304.782609,279 Z M332.284696,244 L333.304348,244 L333.304348,251 L320.572957,251 L308.857652,258 L333.304348,258 L333.304348,265 L304.782609,265 L304.782609,260.45 L297.652174,264.7095 L297.652174,279 L273.715304,279 L262,286 L344,286 L344,237 L332.284696,244 Z" id="Fill-303" fill="#CCEFFF"></path>
                <path d="M269,229 L272,229" id="Stroke-304" stroke="#4A587E" stroke-width="2" stroke-linecap="round"></path>
                <path d="M280,229 L283,229" id="Stroke-305" stroke="#4A587E" stroke-width="2" stroke-linecap="round"></path>
                <path d="M290,229 L293,229" id="Stroke-306" stroke="#4A587E" stroke-width="2" stroke-linecap="round"></path>
                <polygon id="Stroke-307" stroke="#4A587E" stroke-width="2" stroke-linecap="round" stroke-linejoin="round" points="262 287 344 287 344 223 262 223"></polygon>
                <path d="M262,237 L344,237" id="Stroke-308" stroke="#4A587E" stroke-width="2" stroke-linecap="round" stroke-linejoin="round"></path>
                <polygon id="Stroke-309" stroke="#4A587E" stroke-width="2" stroke-linecap="round" stroke-linejoin="round" points="305 266 333 266 333 259 305 259"></polygon>
                <polygon id="Stroke-310" stroke="#4A587E" stroke-width="2" stroke-linecap="round" stroke-linejoin="round" points="305 251 333 251 333 244 305 244"></polygon>
                <polygon id="Stroke-311" stroke="#4A587E" stroke-width="2" stroke-linecap="round" stroke-linejoin="round" points="305 279 333 279 333 272 305 272"></polygon>
                <polygon id="Stroke-312" stroke="#4A587E" stroke-width="2" stroke-linecap="round" stroke-linejoin="round" points="269 280 297 280 297 244 269 244"></polygon>
                <polygon id="Stroke-313" stroke="#4A587E" stroke-width="2" stroke-linecap="round" stroke-linejoin="round" points="290 265.444444 282.5 269 275 265.444444 275 256.555556 282.5 253 290 256.555556"></polygon>
                <polyline id="Stroke-314" stroke="#4A587E" stroke-width="2" stroke-linecap="round" stroke-linejoin="round" points="269 279 274.25 272 291.75 272 297 279"></polyline>
                <polygon id="Fill-315" fill="#FFFFFF" points="62.2222222 102.363636 56.8888889 102.363636 56.8888889 88.1818182 48 81.0909091 46.2222222 74 10.6666667 74 8.88888889 81.0909091 0 88.1818182 0 137.818182 8.88888889 144.909091 10.6666667 152 46.2222222 152 48 144.909091 56.8888889 137.818182 56.8888889 113 62.2222222 113 64 107.681818"></polygon>
                <polygon id="Fill-316" fill="#CCEFFF" points="28 126 46 108.5 37 98 28 105"></polygon>
                <polygon id="Fill-317" fill="#CCEFFF" points="41.3784375 102.4295 46.3125 108.25 28.5 125.75 21.8488125 119.2155 0 138 57 138 57 89"></polygon>
                <polygon id="Stroke-318" stroke="#4A587E" stroke-width="2" stroke-linecap="round" stroke-linejoin="round" points="0 138 57 138 57 89 0 89"></polygon>
                <polyline id="Stroke-319" stroke="#4A587E" stroke-width="2" stroke-linecap="round" stroke-linejoin="round" points="57 89 48.09375 81.5 46.3125 74 10.6875 74 8.90625 81.5 0 89"></polyline>
                <polyline id="Stroke-320" stroke="#4A587E" stroke-width="2" stroke-linecap="round" stroke-linejoin="round" points="57 138 48.09375 145.5 46.3125 153 10.6875 153 8.90625 145.5 0 138"></polyline>
                <polyline id="Stroke-321" stroke="#4A587E" stroke-width="2" stroke-linecap="round" stroke-linejoin="round" points="57 103 62.25 103 64 108 62.25 113 57 113"></polyline>
                <path d="M9,82 L48,82" id="Stroke-322" stroke="#4A587E" stroke-width="2" stroke-linecap="round" stroke-linejoin="round"></path>
                <path d="M9,145 L48,145" id="Stroke-323" stroke="#4A587E" stroke-width="2" stroke-linecap="round" stroke-linejoin="round"></path>
                <polygon id="Stroke-324" stroke="#1050FF" stroke-width="2" stroke-linejoin="round" points="28 126 46 108.5 37 98 28 105 19 98 10 108.5"></polygon>
                <polygon id="Stroke-325" stroke="#1050FF" stroke-width="2" stroke-linecap="round" stroke-linejoin="round" points="28 126 46 108.5 37 98 28 105 19 98 10 108.5"></polygon>
                <polygon id="Stroke-326" stroke="#4A587E" stroke-width="2" stroke-linejoin="round" points="28 126 46 108.5 37 98 28 105 19 98 10 108.5"></polygon>
                <polyline id="Fill-327" fill="#FFFFFF" points="144.325 42 146.1 49 165.625 49 174.5 35 183.375 49 202.9 49 210 21 139 21 141.6412 31.416"></polyline>
                <polygon id="Fill-328" fill="#CCEFFF" points="202.161262 49 209 21 196.789433 21 178 40.2325 183.354732 49"></polygon>
                <polygon id="Fill-329" fill="#CCEFFF" points="155.75 41 134.75 41 133 31 161 31"></polygon>
                <polyline id="Stroke-330" stroke="#9BC0D1" stroke-width="2" stroke-linecap="round" stroke-linejoin="round" points="139 21 159.125 0 167 0"></polyline>
                <polyline id="Stroke-331" stroke="#9BC0D1" stroke-width="2" stroke-linecap="round" stroke-linejoin="round" points="209 21 188.875 0 181 0"></polyline>
                <polygon id="Stroke-332" stroke="#4A587E" stroke-width="2" stroke-linecap="round" stroke-linejoin="round" points="155.75 41 134.75 41 133 31 161 31"></polygon>
                <polyline id="Stroke-333" stroke="#4A587E" stroke-width="2" stroke-linecap="round" stroke-linejoin="round" points="144.325 42 146.1 49 165.625 49 174.5 35 183.375 49 202.9 49 210 21 139 21 141.6412 31.416"></polyline>
            </g>
        </g>
    </g>
</svg>