<?xml version="1.0" encoding="UTF-8"?>
<svg width="142px" height="44px" viewBox="0 0 142 44" version="1.1" xmlns="http://www.w3.org/2000/svg" xmlns:xlink="http://www.w3.org/1999/xlink">
    <!-- Generator: Sketch 49 (51002) - http://www.bohemiancoding.com/sketch -->
    <title>Group 12</title>
    <desc>Created with Sketch.</desc>
    <defs></defs>
    <g id="Page-1" stroke="none" stroke-width="1" fill="none" fill-rule="evenodd">
        <g id="Desktop-HD" transform="translate(-70.000000, -4554.000000)">
            <g id="Group-12" transform="translate(71.000000, 4555.000000)">
                <rect id="Rectangle-3" stroke="#F3F8FF" x="-0.5" y="-0.5" width="141" height="43" rx="2"></rect>
                <path d="M13.2924099,6 C12.0263469,6 11,7.1216205 11,8.51060118 L11,34.4893988 C11,35.8759656 12.0252116,37 13.2924099,37 L24.7075901,37 C25.9736531,37 27,35.8783795 27,34.4893988 L27,8.51060118 C27,7.12403444 25.9747884,6 24.7075901,6 L13.2924099,6 L13.2924099,6 Z M12.5,10.0655738 L12.5,32.9344262 L25.5,32.9344262 L25.5,10.0655738 L12.5,10.0655738 L12.5,10.0655738 Z M19,35.9836066 C19.5522847,35.9836066 20,35.5285517 20,34.9672131 C20,34.4058745 19.5522847,33.9508197 19,33.9508197 C18.4477153,33.9508197 18,34.4058745 18,34.9672131 C18,35.5285517 18.4477153,35.9836066 19,35.9836066 L19,35.9836066 Z M17,8.03278689 C17,8.31345618 17.171875,8.54098361 17.398159,8.54098361 L20.601841,8.54098361 C20.8217381,8.54098361 21,8.30524782 21,8.03278689 C21,7.75211759 20.828125,7.52459016 20.601841,7.52459016 L17.398159,7.52459016 C17.1782619,7.52459016 17,7.76032595 17,8.03278689 Z" id="iPhone-Vector" fill="#F3F8FF"></path>
                <path d="M39.1905641,11.6867692 L36.3225641,11.6867692 L35.4825641,14.2307692 L34.4025641,14.2307692 L37.1505641,6.14276923 L38.4105641,6.14276923 L41.1705641,14.2307692 L40.0545641,14.2307692 L39.1905641,11.6867692 Z M36.5385641,10.8707692 L38.9745641,10.8707692 L38.1825641,8.54276923 C38.0025641,8.01476923 37.8825641,7.53476923 37.7625641,7.06676923 L37.7385641,7.06676923 C37.6185641,7.54676923 37.4865641,8.03876923 37.3305641,8.53076923 L36.5385641,10.8707692 Z M41.5905641,8.42276923 L42.7185641,8.42276923 L43.8585641,11.6867692 C44.0505641,12.2147692 44.2065641,12.6947692 44.3265641,13.1747692 L44.3625641,13.1747692 C44.4945641,12.6947692 44.6625641,12.2147692 44.8545641,11.6867692 L45.9825641,8.42276923 L47.0865641,8.42276923 L44.8065641,14.2307692 L43.7985641,14.2307692 L41.5905641,8.42276923 Z M52.4505641,14.2307692 L51.4905641,14.2307692 L51.4065641,13.4987692 L51.3705641,13.4987692 C51.0465641,13.9547692 50.4225641,14.3627692 49.5945641,14.3627692 C48.4185641,14.3627692 47.8185641,13.5347692 47.8185641,12.6947692 C47.8185641,11.2907692 49.0665641,10.5227692 51.3105641,10.5347692 L51.3105641,10.4147692 C51.3105641,9.93476923 51.1785641,9.07076923 49.9905641,9.07076923 C49.4505641,9.07076923 48.8865641,9.23876923 48.4785641,9.50276923 L48.2385641,8.80676923 C48.7185641,8.49476923 49.4145641,8.29076923 50.1465641,8.29076923 C51.9225641,8.29076923 52.3545641,9.50276923 52.3545641,10.6667692 L52.3545641,12.8387692 C52.3545641,13.3427692 52.3785641,13.8347692 52.4505641,14.2307692 Z M51.3345641,12.2747692 L51.3345641,11.2667692 C50.1825641,11.2427692 48.8745641,11.4467692 48.8745641,12.5747692 C48.8745641,13.2587692 49.3305641,13.5827692 49.8705641,13.5827692 C50.6265641,13.5827692 51.1065641,13.1027692 51.2745641,12.6107692 C51.3105641,12.5027692 51.3345641,12.3827692 51.3345641,12.2747692 Z M55.3545641,14.2307692 L54.2985641,14.2307692 L54.2985641,8.42276923 L55.3545641,8.42276923 L55.3545641,14.2307692 Z M54.8265641,6.13076923 C55.2225641,6.13076923 55.4745641,6.41876923 55.4745641,6.79076923 C55.4865641,7.15076923 55.2225641,7.43876923 54.8025641,7.43876923 C54.4305641,7.43876923 54.1665641,7.15076923 54.1665641,6.79076923 C54.1665641,6.41876923 54.4425641,6.13076923 54.8265641,6.13076923 Z M57.3465641,14.2307692 L57.3465641,5.71076923 L58.4025641,5.71076923 L58.4025641,14.2307692 L57.3465641,14.2307692 Z M64.5945641,14.2307692 L63.6345641,14.2307692 L63.5505641,13.4987692 L63.5145641,13.4987692 C63.1905641,13.9547692 62.5665641,14.3627692 61.7385641,14.3627692 C60.5625641,14.3627692 59.9625641,13.5347692 59.9625641,12.6947692 C59.9625641,11.2907692 61.2105641,10.5227692 63.4545641,10.5347692 L63.4545641,10.4147692 C63.4545641,9.93476923 63.3225641,9.07076923 62.1345641,9.07076923 C61.5945641,9.07076923 61.0305641,9.23876923 60.6225641,9.50276923 L60.3825641,8.80676923 C60.8625641,8.49476923 61.5585641,8.29076923 62.2905641,8.29076923 C64.0665641,8.29076923 64.4985641,9.50276923 64.4985641,10.6667692 L64.4985641,12.8387692 C64.4985641,13.3427692 64.5225641,13.8347692 64.5945641,14.2307692 Z M63.4785641,12.2747692 L63.4785641,11.2667692 C62.3265641,11.2427692 61.0185641,11.4467692 61.0185641,12.5747692 C61.0185641,13.2587692 61.4745641,13.5827692 62.0145641,13.5827692 C62.7705641,13.5827692 63.2505641,13.1027692 63.4185641,12.6107692 C63.4545641,12.5027692 63.4785641,12.3827692 63.4785641,12.2747692 Z M67.3065641,14.2307692 L66.3945641,14.2307692 C66.4185641,13.8347692 66.4425641,13.2467692 66.4425641,12.7307692 L66.4425641,5.71076923 L67.4865641,5.71076923 L67.4865641,9.35876923 L67.5105641,9.35876923 C67.8825641,8.71076923 68.5545641,8.29076923 69.4905641,8.29076923 C70.9305641,8.29076923 71.9505641,9.49076923 71.9385641,11.2547692 C71.9385641,13.3307692 70.6305641,14.3627692 69.3345641,14.3627692 C68.4945641,14.3627692 67.8225641,14.0387692 67.3905641,13.2707692 L67.3545641,13.2707692 L67.3065641,14.2307692 Z M67.4865641,10.8587692 L67.4865641,11.9027692 C67.4865641,12.0347692 67.5105641,12.1667692 67.5345641,12.2867692 C67.7385641,13.0187692 68.3505641,13.5227692 69.1185641,13.5227692 C70.2225641,13.5227692 70.8825641,12.6227692 70.8825641,11.2907692 C70.8825641,10.1267692 70.2825641,9.13076923 69.1545641,9.13076923 C68.4345641,9.13076923 67.7625641,9.62276923 67.5465641,10.4267692 C67.5225641,10.5467692 67.4865641,10.6907692 67.4865641,10.8587692 Z M73.5105641,14.2307692 L73.5105641,5.71076923 L74.5665641,5.71076923 L74.5665641,14.2307692 L73.5105641,14.2307692 Z M81.2505641,11.5187692 L77.1705641,11.5187692 C77.1945641,12.9467692 78.1065641,13.5347692 79.1625641,13.5347692 C79.9185641,13.5347692 80.3745641,13.4027692 80.7705641,13.2347692 L80.9505641,13.9907692 C80.5785641,14.1587692 79.9425641,14.3507692 79.0185641,14.3507692 C77.2305641,14.3507692 76.1625641,13.1747692 76.1625641,11.4227692 C76.1625641,9.67076923 77.1945641,8.29076923 78.8865641,8.29076923 C80.7825641,8.29076923 81.2865641,9.95876923 81.2865641,11.0267692 C81.2865641,11.2427692 81.2625641,11.4107692 81.2505641,11.5187692 Z M77.1825641,10.7627692 L80.2665641,10.7627692 C80.2785641,10.0907692 79.9905641,9.04676923 78.8025641,9.04676923 C77.7345641,9.04676923 77.2665641,10.0307692 77.1825641,10.7627692 Z M88.078564,8.29076923 C89.746564,8.29076923 90.874564,9.50276923 90.874564,11.2787692 C90.874564,13.4267692 89.386564,14.3627692 87.982564,14.3627692 C86.410564,14.3627692 85.198564,13.2107692 85.198564,11.3747692 C85.198564,9.43076923 86.470564,8.29076923 88.078564,8.29076923 Z M88.054564,9.08276923 C86.806564,9.08276923 86.266564,10.2347692 86.266564,11.3387692 C86.266564,12.6107692 86.998564,13.5707692 88.030564,13.5707692 C89.038564,13.5707692 89.794564,12.6227692 89.794564,11.3147692 C89.794564,10.3307692 89.302564,9.08276923 88.054564,9.08276923 Z M92.446564,14.2307692 L92.446564,9.99476923 C92.446564,9.39476923 92.434564,8.90276923 92.398564,8.42276923 L93.334564,8.42276923 L93.394564,9.38276923 L93.418564,9.38276923 C93.706564,8.83076923 94.378564,8.29076923 95.338564,8.29076923 C96.142564,8.29076923 97.390564,8.77076923 97.390564,10.7627692 L97.390564,14.2307692 L96.334564,14.2307692 L96.334564,10.8827692 C96.334564,9.94676923 95.986564,9.16676923 94.990564,9.16676923 C94.294564,9.16676923 93.754564,9.65876923 93.574564,10.2467692 C93.526564,10.3787692 93.502564,10.5587692 93.502564,10.7387692 L93.502564,14.2307692 L92.446564,14.2307692 Z M102.370564,7.03076923 L103.402564,6.75476923 L103.402564,8.42276923 L104.914564,8.42276923 L104.914564,9.22676923 L103.402564,9.22676923 L103.402564,12.3587692 C103.402564,13.0787692 103.606564,13.4867692 104.194564,13.4867692 C104.470564,13.4867692 104.674564,13.4507692 104.806564,13.4147692 L104.854564,14.2067692 C104.650564,14.2907692 104.326564,14.3507692 103.918564,14.3507692 C103.426564,14.3507692 103.030564,14.1947692 102.778564,13.9067692 C102.478564,13.5947692 102.370564,13.0787692 102.370564,12.3947692 L102.370564,9.22676923 L101.470564,9.22676923 L101.470564,8.42276923 L102.370564,8.42276923 L102.370564,7.03076923 Z M106.342564,14.2307692 L106.342564,5.71076923 L107.398564,5.71076923 L107.398564,9.33476923 L107.422564,9.33476923 C107.590564,9.03476923 107.854564,8.77076923 108.178564,8.59076923 C108.490564,8.41076923 108.862564,8.29076923 109.258564,8.29076923 C110.038564,8.29076923 111.286564,8.77076923 111.286564,10.7747692 L111.286564,14.2307692 L110.230564,14.2307692 L110.230564,10.8947692 C110.230564,9.95876923 109.882564,9.16676923 108.886564,9.16676923 C108.202564,9.16676923 107.662564,9.64676923 107.470564,10.2227692 C107.410564,10.3667692 107.398564,10.5227692 107.398564,10.7267692 L107.398564,14.2307692 L106.342564,14.2307692 Z M117.910564,11.5187692 L113.830564,11.5187692 C113.854564,12.9467692 114.766564,13.5347692 115.822564,13.5347692 C116.578564,13.5347692 117.034564,13.4027692 117.430564,13.2347692 L117.610564,13.9907692 C117.238564,14.1587692 116.602564,14.3507692 115.678564,14.3507692 C113.890564,14.3507692 112.822564,13.1747692 112.822564,11.4227692 C112.822564,9.67076923 113.854564,8.29076923 115.546564,8.29076923 C117.442564,8.29076923 117.946564,9.95876923 117.946564,11.0267692 C117.946564,11.2427692 117.922564,11.4107692 117.910564,11.5187692 Z M113.842564,10.7627692 L116.926564,10.7627692 C116.938564,10.0907692 116.650564,9.04676923 115.462564,9.04676923 C114.394564,9.04676923 113.926564,10.0307692 113.842564,10.7627692 Z" id="Available-on-the" fill="#F3F8FF"></path>
                <path d="M43.8022408,28.2270847 L38.3347344,28.2270847 L36.7333727,33.0769231 L34.674479,33.0769231 L39.9132195,17.6580973 L42.3152621,17.6580973 L47.5768792,33.0769231 L45.4493558,33.0769231 L43.8022408,28.2270847 Z M38.7465131,26.6714762 L43.3904621,26.6714762 L41.8806068,22.2334165 C41.5374578,21.2268463 41.3086919,20.3117825 41.0799259,19.4195952 L41.0341727,19.4195952 C40.8054068,20.3346591 40.5537642,21.2725995 40.2563684,22.2105399 L38.7465131,26.6714762 Z M48.8944027,37.6064891 L48.8944027,25.6191528 C48.8944027,24.2008038 48.8486496,23.056974 48.8028964,22.0046506 L50.6101475,22.0046506 L50.7016538,23.903408 L50.747407,23.903408 C51.5709645,22.5536889 52.8749305,21.753008 54.6821816,21.753008 C57.3587433,21.753008 59.3718838,24.017791 59.3718838,27.3806507 C59.3718838,31.3611784 56.9469646,33.3285656 54.3390326,33.3285656 C52.8749305,33.3285656 51.5938411,32.6880209 50.9304198,31.5899443 L50.8846666,31.5899443 L50.8846666,37.6064891 L48.8944027,37.6064891 Z M50.8846666,26.6714762 L50.8846666,28.5702336 C50.8846666,28.8676294 50.9304198,29.1421486 50.976173,29.3937911 C51.3421985,30.7892635 52.5546581,31.7500805 53.9958837,31.7500805 C56.1234071,31.7500805 57.3587433,30.0114592 57.3587433,27.472157 C57.3587433,25.2531272 56.1920369,23.3543697 54.0645135,23.3543697 C52.6919177,23.3543697 51.4108283,24.3380634 51.0219262,25.8479187 C50.9532964,26.0995613 50.8846666,26.396957 50.8846666,26.6714762 Z M61.101186,37.6064891 L61.101186,25.6191528 C61.101186,24.2008038 61.0554328,23.056974 61.0096797,22.0046506 L62.8169307,22.0046506 L62.9084371,23.903408 L62.9541903,23.903408 C63.7777478,22.5536889 65.0817138,21.753008 66.8889648,21.753008 C69.5655266,21.753008 71.578667,24.017791 71.578667,27.3806507 C71.578667,31.3611784 69.1537479,33.3285656 66.5458159,33.3285656 C65.0817138,33.3285656 63.8006244,32.6880209 63.1372031,31.5899443 L63.0914499,31.5899443 L63.0914499,37.6064891 L61.101186,37.6064891 Z M63.0914499,26.6714762 L63.0914499,28.5702336 C63.0914499,28.8676294 63.1372031,29.1421486 63.1829563,29.3937911 C63.5489818,30.7892635 64.7614414,31.7500805 66.202667,31.7500805 C68.3301904,31.7500805 69.5655266,30.0114592 69.5655266,27.472157 C69.5655266,25.2531272 68.3988202,23.3543697 66.2712968,23.3543697 C64.898701,23.3543697 63.6176116,24.3380634 63.2287095,25.8479187 C63.1600797,26.0995613 63.0914499,26.396957 63.0914499,26.6714762 Z M76.6386333,32.3219954 L77.1419185,30.6520039 C78.0341057,31.2010422 79.3380717,31.6585741 80.7106674,31.6585741 C82.7466845,31.6585741 83.9362675,30.5833741 83.9362675,29.0277656 C83.9362675,27.58654 83.11271,26.7629826 81.0309398,25.9623017 C78.5145142,25.0701144 76.9589057,23.7661485 76.9589057,21.5928718 C76.9589057,19.1908293 78.9491695,17.4064548 81.9460036,17.4064548 C83.5244888,17.4064548 84.6683186,17.7724803 85.3546164,18.1613824 L84.8055781,19.7856208 C84.302293,19.5111016 83.2728462,19.0535697 81.8773738,19.0535697 C79.772727,19.0535697 78.9720461,20.3117825 78.9720461,21.3641059 C78.9720461,22.8053314 79.9099866,23.5145059 82.03751,24.3380634 C84.645442,25.3446336 85.9722845,26.6028464 85.9722845,28.8676294 C85.9722845,31.2467954 84.2107866,33.305689 80.5734079,33.305689 C79.0864291,33.305689 77.4621908,32.8710337 76.6386333,32.3219954 Z M88.2048719,19.3509654 L90.1722592,18.8248037 L90.1722592,22.0046506 L93.0547103,22.0046506 L93.0547103,23.5373825 L90.1722592,23.5373825 L90.1722592,29.5081741 C90.1722592,30.8807699 90.5611613,31.6585741 91.6821145,31.6585741 C92.2082763,31.6585741 92.5971784,31.5899443 92.8488209,31.5213145 L92.9403273,33.0311699 C92.5514252,33.1913061 91.9337571,33.305689 91.1559528,33.305689 C90.2180124,33.305689 89.4630847,33.0082933 88.9826762,32.459255 C88.4107613,31.8644635 88.2048719,30.8807699 88.2048719,29.5768039 L88.2048719,23.5373825 L86.4891272,23.5373825 L86.4891272,22.0046506 L88.2048719,22.0046506 L88.2048719,19.3509654 Z M99.0619361,21.753008 C102.241783,21.753008 104.392183,24.0635442 104.392183,27.4492804 C104.392183,31.5441911 101.555485,33.3285656 98.8789233,33.3285656 C95.8820892,33.3285656 93.571553,31.1324124 93.571553,27.6322932 C93.571553,23.9262846 95.9964722,21.753008 99.0619361,21.753008 Z M99.0161829,23.2628634 C96.6370169,23.2628634 95.60757,25.4590166 95.60757,27.5636634 C95.60757,29.9885826 97.0030424,31.8187103 98.9704297,31.8187103 C100.892064,31.8187103 102.333289,30.0114592 102.333289,27.5179102 C102.333289,25.6420293 101.395349,23.2628634 99.0161829,23.2628634 Z M106.121485,33.0769231 L106.121485,25.4590166 C106.121485,24.1550506 106.098609,23.0340974 106.029979,22.0046506 L107.791477,22.0046506 L107.860107,24.1779272 L107.951613,24.1779272 C108.454898,22.6909485 109.667358,21.753008 111.017077,21.753008 C111.245843,21.753008 111.405979,21.7758846 111.588992,21.8216378 L111.588992,23.7203953 C111.383102,23.6746421 111.177213,23.6517655 110.902694,23.6517655 C109.484345,23.6517655 108.477775,24.7269655 108.203255,26.2368208 C108.157502,26.51134 108.111749,26.8316123 108.111749,27.1747613 L108.111749,33.0769231 L106.121485,33.0769231 Z M121.462362,27.9068124 L113.68432,27.9068124 C113.730073,30.6291273 115.468694,31.7500805 117.481834,31.7500805 C118.92306,31.7500805 119.792371,31.4984379 120.547298,31.1781656 L120.890447,32.6193912 C120.181273,32.9396635 118.968813,33.305689 117.207315,33.305689 C113.798702,33.305689 111.762685,31.0637826 111.762685,27.7237996 C111.762685,24.3838166 113.730073,21.753008 116.955673,21.753008 C120.570175,21.753008 121.530992,24.9328549 121.530992,26.9688719 C121.530992,27.3806507 121.485239,27.700923 121.462362,27.9068124 Z M113.707196,26.4655868 L119.586481,26.4655868 C119.609358,25.1844974 119.06032,23.1942336 116.795537,23.1942336 C114.75952,23.1942336 113.867332,25.0701144 113.707196,26.4655868 Z" id="App-Store" fill="#F3F8FF"></path>
            </g>
        </g>
    </g>
</svg>