<?xml version="1.0" encoding="UTF-8"?>
<svg width="142px" height="44px" viewBox="0 0 142 44" version="1.1" xmlns="http://www.w3.org/2000/svg" xmlns:xlink="http://www.w3.org/1999/xlink">
    <!-- Generator: Sketch 49 (51002) - http://www.bohemiancoding.com/sketch -->
    <title>Group 13</title>
    <desc>Created with Sketch.</desc>
    <defs></defs>
    <g id="Page-1" stroke="none" stroke-width="1" fill="none" fill-rule="evenodd">
        <g id="Desktop-HD" transform="translate(-228.000000, -4554.000000)">
            <g id="Group-13" transform="translate(229.000000, 4555.000000)">
                <rect id="Rectangle-4" stroke="#F3F8FF" x="-0.5" y="-0.5" width="141" height="43" rx="2"></rect>
                <path d="M96.8112439,30.6348054 L95.7872153,31.5973676 C95.5511938,31.7270162 95.3158068,31.8775351 95.0810543,31.9844162 C94.3698175,32.3063243 93.6465259,32.3872757 93.0038116,32.3872757 C92.3198569,32.3872757 91.2476088,32.3436378 90.1544234,31.5549946 C88.6348766,30.4874486 87.9705903,28.654027 87.9705903,27.0558703 C87.9705903,23.7469838 90.6727823,22.1241622 92.8762838,22.1241622 C93.6471604,22.1241622 94.4383399,22.3164216 95.0816887,22.7218108 C96.1513989,23.4263405 96.4280262,24.3427351 96.5815671,24.8341351 L91.5477114,26.8610811 L89.8993679,26.9888324 C90.4329541,29.7013351 92.2741753,31.2792541 94.3089088,31.2792541 C95.3253238,31.2792541 96.0797042,30.9491243 96.771907,30.6076108 C96.7712725,30.6082432 96.9102206,30.5361459 96.8112439,30.6348054 L96.8112439,30.6348054 Z M93.7746881,25.2382595 C94.1839189,25.0902703 94.3958306,24.9618865 94.3958306,24.6652757 C94.3958306,23.8127568 93.4282695,22.8286919 92.2735408,22.8286919 C91.4176458,22.8286919 89.812446,23.4927459 89.812446,25.7979622 C89.812446,26.1578162 89.8549553,26.5410703 89.8771616,26.9243243 L93.7746881,25.2382595 L93.7746881,25.2382595 Z" id="Shape" fill="#F3F8FF"></path>
                <path d="M86.2873512,30.4691081 C86.2873512,31.2988595 86.4358163,31.4278757 87.1394395,31.4923838 C87.506161,31.5353892 87.8716136,31.5549946 88.2338939,31.5973676 L87.4420799,32.0672649 L83.6689088,32.0672649 C84.1637925,31.4272432 84.248811,31.364 84.248811,30.9371081 L84.248811,30.4608865 L84.2405629,17.7723946 L82.5744544,17.7723946 L84.1777507,17.0020919 L87.2396852,17.0020919 C86.5760334,17.3847135 86.3780799,17.6187135 86.292427,18.3649838 L86.2873512,30.4691081 L86.2873512,30.4691081 Z" id="Shape" fill="#F3F8FF"></path>
                <path d="M80.4356685,23.1714703 C80.9267454,23.5743297 81.9533119,24.4287459 81.9533119,26.0509351 C81.9533119,27.6313838 81.0593488,28.3763892 80.1577722,29.0815514 C79.8811449,29.3591892 79.5582016,29.660227 79.5582016,30.1256973 C79.5582016,30.5974919 79.8817794,30.853627 80.1146285,31.0446216 L80.8880429,31.6397405 C81.828322,32.4309135 82.685486,33.1563135 82.685486,34.6298811 C82.685486,36.6378541 80.7364055,38.6616378 77.0533286,38.6616378 C73.9507883,38.6616378 72.45091,37.1893351 72.45091,35.6101514 C72.45091,34.8411135 72.8341276,33.7526973 74.1011568,33.0076919 C75.4284603,32.1988108 77.2271723,32.0906649 78.1896577,32.0274216 C77.8889207,31.640373 77.5456744,31.2349838 77.5456744,30.5734595 C77.5456744,30.2117081 77.6548026,29.9960486 77.760124,29.7418108 C77.526006,29.7639459 77.2899845,29.7867135 77.0755349,29.7867135 C74.80478,29.7867135 73.5206202,28.0981189 73.5206202,26.4335568 C73.5206202,25.4520216 73.9698223,24.3636054 74.8923363,23.5736973 C76.1130495,22.5719243 77.5685152,22.3992703 78.7251473,22.3992703 L83.137226,22.3992703 L81.7655098,23.1714703 L80.4356685,23.1714703 L80.4356685,23.1714703 Z M78.918025,32.6459405 C78.7429123,32.623173 78.6375909,32.623173 78.4256792,32.623173 C78.2315325,32.623173 77.0749004,32.6649135 76.179034,32.9646865 C75.7050877,33.1373405 74.3352749,33.6477135 74.3352749,35.1642865 C74.3352749,36.6770649 75.8142159,37.7673784 78.1027358,37.7673784 C80.1577722,37.7673784 81.2496887,36.7852108 81.2496887,35.4627946 C81.2490543,34.3743784 80.5428933,33.8001297 78.918025,32.6459405 L78.918025,32.6459405 Z M79.5340918,28.5907838 C80.0289756,28.0987514 80.0721193,27.4182541 80.0721193,27.0312054 C80.0721193,25.4962919 79.1540465,23.1056973 77.3743685,23.1056973 C76.8192105,23.1056973 76.2177364,23.3839676 75.8763936,23.8127568 C75.5147478,24.2573568 75.406254,24.8341351 75.406254,25.3887784 C75.406254,26.8180757 76.2418462,29.1884324 78.0817984,29.1884324 C78.6179225,29.1884324 79.1952868,28.9285027 79.5340918,28.5907838 L79.5340918,28.5907838 Z" id="Shape" fill="#F3F8FF"></path>
                <path d="M67.1613643,32.3436378 C63.7580871,32.3436378 61.9371688,29.7013351 61.9371688,27.3101081 C61.9371688,24.5153892 64.2263232,22.1241622 67.4824043,22.1241622 C70.6299917,22.1241622 72.6012785,24.5805297 72.6012785,27.1595892 C72.6012785,29.6779351 70.6528324,32.3436378 67.1613643,32.3436378 L67.1613643,32.3436378 Z M69.8388122,30.6170973 C70.3565367,29.9340703 70.482161,29.0815514 70.482161,28.2505351 C70.482161,26.3709459 69.5837567,22.7863189 66.9285152,22.7863189 C66.2223542,22.7863189 65.5111175,23.061427 64.9984687,23.5110865 C64.1622421,24.2579892 64.0131425,25.1958865 64.0131425,26.1167081 C64.0131425,28.2252378 65.0581085,31.7029838 67.6530757,31.7029838 C68.4912057,31.7029838 69.3458318,31.2988595 69.8388122,30.6170973 L69.8388122,30.6170973 Z" id="Shape" fill="#F3F8FF"></path>
                <path d="M55.7669839,32.3436378 C52.3630722,32.3436378 50.5446917,29.7013351 50.5446917,27.3101081 C50.5446917,24.5153892 52.8344806,22.1241622 56.0892928,22.1241622 C59.2349767,22.1241622 61.2043602,24.5805297 61.2043602,27.1595892 C61.2049946,29.6779351 59.2590865,32.3436378 55.7669839,32.3436378 L55.7669839,32.3436378 Z M58.4450662,30.6170973 C58.9589839,29.9340703 59.0871461,29.0815514 59.0871461,28.2505351 C59.0871461,26.3709459 58.1862039,22.7863189 55.5335003,22.7863189 C54.8248014,22.7863189 54.1211783,23.061427 53.6072606,23.5110865 C52.7697651,24.2579892 52.6212999,25.1958865 52.6212999,26.1167081 C52.6212999,28.2252378 53.6707072,31.7029838 56.2612332,31.7029838 C57.0974597,31.7029838 57.9508169,31.2988595 58.4450662,30.6170973 L58.4450662,30.6170973 Z" id="Shape" fill="#F3F8FF"></path>
                <path d="M49.1843959,31.6030595 L46.3140704,32.257627 C45.1510936,32.4404 44.1067621,32.6016703 43.0008873,32.6016703 C37.4638998,32.6016703 35.3549338,28.5389243 35.3549338,25.3603189 C35.3549338,21.4771838 38.3439046,17.8780108 43.4621443,17.8780108 C44.5451783,17.8780108 45.5876064,18.0367514 46.536768,18.2941514 C48.0410877,18.7159838 48.7440763,19.2345784 49.1843959,19.5394108 L47.5170185,21.1179622 L46.8140298,21.2748054 L47.3152582,20.4779405 C46.6363792,19.8170486 45.388384,18.5970865 43.0199213,18.5970865 C39.8532999,18.5970865 37.4638998,20.9965351 37.4638998,24.4995784 C37.4638998,28.2619189 40.1921049,31.8010108 44.5661157,31.8010108 C45.8515444,31.8010108 46.5132928,31.5436108 47.1141324,31.3032865 L47.1141324,28.0778811 L44.0839213,28.2404162 L45.69039,27.3803081 L49.9432177,27.3803081 L49.4235897,27.8792973 C49.2827382,27.9981946 49.2643387,28.0386703 49.2250018,28.1980432 C49.2040644,28.3801838 49.1850304,28.9594919 49.1850304,29.1631351 L49.1850304,31.6030595 L49.1843959,31.6030595 Z" id="Shape" fill="#F3F8FF"></path>
                <path d="M102.982698,30.7258757 L102.982698,36.1622649 L101.899664,36.1622649 L101.899664,22.3297027 L102.982698,22.3297027 L102.982698,23.9044595 C103.68759,22.8868757 104.976825,22.0792595 106.4748,22.0792595 C109.159862,22.0792595 110.96936,24.11 110.96936,27.3246541 C110.96936,30.5178054 109.159862,32.5909189 106.4748,32.5909189 C105.061209,32.5915514 103.794815,31.8648865 102.982698,30.7258757 L102.982698,30.7258757 Z M109.805748,27.3252865 C109.805748,24.9024378 108.538719,23.0544703 106.292074,23.0544703 C104.896883,23.0544703 103.5626,24.1479459 102.982698,25.1003892 L102.982698,29.5280486 C103.5626,30.4830216 104.896883,31.6157081 106.292074,31.6157081 C108.538719,31.6157081 109.805748,29.7519297 109.805748,27.3252865 L109.805748,27.3252865 Z" id="Shape" fill="#F3F8FF"></path>
                <polygon id="Shape" fill="#F3F8FF" points="112.448301 32.342373 112.448301 18.5104432 113.5307 18.5104432 113.5307 32.342373 112.448301 32.342373"></polygon>
                <path d="M125.683268,35.267373 C125.914213,35.369827 126.309486,35.4337027 126.560735,35.4337027 C127.223117,35.4337027 127.684374,35.1636541 128.098681,34.2093135 L128.888592,32.4258541 L124.621806,22.3297027 L125.829829,22.3297027 L129.489431,31.078773 L133.113503,22.3297027 L134.338657,22.3297027 L129.135399,34.5438703 C128.595468,35.8024108 127.745918,36.4076486 126.579134,36.4076486 C126.228909,36.4076486 125.767652,36.3450378 125.496735,36.2628216 L125.683268,35.267373 L125.683268,35.267373 Z" id="Shape" fill="#F3F8FF"></path>
                <path d="M122.519819,32.3126486 C122.44749,31.9654432 122.392925,31.6599784 122.352954,31.4038432 C122.319327,31.148973 122.300928,30.8884108 122.300928,30.6234216 C121.929131,31.1666811 121.403158,31.6188703 120.731258,31.9755622 C120.058724,32.3335189 119.420451,32.5099676 118.543618,32.5099676 C117.488501,32.5099676 116.670039,32.2513027 116.085061,31.7263838 C115.502621,31.2020973 115.209498,30.4918757 115.209498,29.5931892 C115.209498,28.6957676 115.633956,27.9672054 116.480334,27.4100324 C117.326712,26.8503297 118.421166,26.5726919 119.774483,26.5726919 L122.300293,26.5726919 L122.300293,25.3280649 C122.300293,24.6115189 122.054755,24.0486541 121.566216,23.6394703 C121.075139,23.2309189 120.386109,23.0234811 119.492145,23.0234811 C118.675587,23.0234811 118.013205,23.2125784 117.508804,23.5806541 C117.008844,23.9563189 116.757596,24.4217892 116.757596,24.9827568 L115.649183,24.9827568 L115.626342,24.929 C115.585736,24.1732432 115.933424,23.5091892 116.671308,22.9368378 C117.405386,22.3644865 118.368506,22.0767297 119.553054,22.0767297 C120.733162,22.0767297 121.688668,22.3600595 122.409422,22.9254541 C123.128906,23.4851568 123.489918,24.2940378 123.489918,25.3514649 L123.489918,30.2913946 C123.489918,30.6461892 123.506414,30.9889676 123.551461,31.3228919 C123.597143,31.6574486 123.670106,31.991373 123.767179,32.3139135 L122.519819,32.3139135 L122.519819,32.3126486 Z M118.676856,31.5259027 C119.596832,31.5259027 120.257946,31.3209946 120.934287,30.9156054 C121.605553,30.5121135 122.061734,29.9865622 122.301562,29.3503351 L122.301562,27.4277405 L119.763697,27.4277405 C118.794233,27.4277405 117.991633,27.6415027 117.360339,28.0734541 C116.727776,28.5035081 116.406736,29.024 116.406736,29.6292378 C116.406736,30.1996919 116.609765,30.6569405 117.01392,31.0028811 C117.418075,31.3526162 117.97133,31.5259027 118.676856,31.5259027 L118.676856,31.5259027 Z" id="Shape" fill="#F3F8FF"></path>
                <path d="M35.3282862,9.16397297 C35.3282862,7.03836757 36.9125486,5.67168108 38.883201,5.67168108 C40.2035253,5.67168108 41.0663995,6.29905405 41.6050614,7.06872432 L40.6400382,7.6258973 C40.2745856,7.11931892 39.6344091,6.72468108 38.883201,6.72468108 C37.5432081,6.72468108 36.547096,7.73720541 36.547096,9.16397297 C36.547096,10.5711351 37.5425736,11.6032649 38.883201,11.6032649 C39.5741348,11.6032649 40.1832224,11.2895784 40.4877662,10.9961297 L40.4877662,9.95324865 L38.4568396,9.95324865 L38.4568396,8.911 L41.6659702,8.911 L41.6659702,11.4312432 C41.0061252,12.1705568 40.0512534,12.6663838 38.883201,12.6663838 C36.9125486,12.6663838 35.3282862,11.2800919 35.3282862,9.16397297 L35.3282862,9.16397297 Z" id="Shape" fill="#F3F8FF"></path>
                <polygon id="Shape" fill="#F3F8FF" points="43.1353942 12.5348378 43.1353942 5.78235676 47.7758807 5.78235676 47.7758807 6.82523784 44.3231151 6.82523784 44.3231151 8.56632432 47.705455 8.56632432 47.705455 9.60920541 44.3231151 9.60920541 44.3231151 11.4925892 47.7758807 11.4925892 47.7758807 12.5348378 43.1353942 12.5348378"></polygon>
                <polygon id="Shape" fill="#F3F8FF" points="51.0643196 12.5348378 51.0643196 6.82587027 49.01309 6.82587027 49.01309 5.78298919 54.3039046 5.78298919 54.3039046 6.82587027 52.2533095 6.82587027 52.2533095 12.5348378"></polygon>
                <polygon id="Shape" fill="#F3F8FF" points="58.4336458 12.5348378 58.4336458 5.78235676 59.6213667 5.78235676 59.6213667 12.5348378"></polygon>
                <polygon id="Shape" fill="#F3F8FF" points="62.930743 12.5348378 62.930743 6.82587027 60.8795134 6.82587027 60.8795134 5.78298919 66.170328 5.78298919 66.170328 6.82587027 64.1190984 6.82587027 64.1190984 12.5348378"></polygon>
                <path d="M70.0056768,9.16397297 C70.0056768,7.14904324 71.4376673,5.67168108 73.4692284,5.67168108 C75.4893691,5.67168108 76.9321455,7.14967568 76.9321455,9.16397297 C76.9321455,11.1782703 75.4893691,12.6562649 73.4692284,12.6562649 C71.4370328,12.6562649 70.0056768,11.1782703 70.0056768,9.16397297 L70.0056768,9.16397297 Z M75.7133357,9.16397297 C75.7133357,7.76692973 74.8295242,6.72468108 73.4692284,6.72468108 C72.0981467,6.72468108 71.2244866,7.76692973 71.2244866,9.16397297 C71.2244866,10.5502649 72.0981467,11.6032649 73.4692284,11.6032649 C74.8295242,11.6032649 75.7133357,10.5502649 75.7133357,9.16397297 L75.7133357,9.16397297 Z" id="Shape" fill="#F3F8FF"></path>
                <polygon id="Shape" fill="#F3F8FF" points="83.0420561 12.5348378 79.5080787 7.70621622 79.5080787 12.5348378 78.3203578 12.5348378 78.3203578 5.78235676 79.5391676 5.78235676 83.0020847 10.459827 83.0020847 5.78235676 84.1904401 5.78235676 84.1904401 12.5348378"></polygon>
                <path d="M9.61910394,36.995639 C9.22856188,36.8904429 8.97435897,36.5027041 8.97435897,35.9026958 L8.97435897,16.0973042 C8.97435897,15.5416051 9.1895963,15.1668265 9.53078904,15.0305642 L9.53078904,15.0305642 L19.2635661,26.0678276 L9.61910394,36.995639 L9.61910394,36.995639 Z M10.9588907,36.575234 L22.6740827,29.9354564 L19.8206812,26.6996128 L10.9588907,36.575234 L10.9588907,36.575234 Z M22.7547546,22.1120809 L11.2028263,15.563314 L19.8375729,25.4174401 L22.7547546,22.1120809 L22.7547546,22.1120809 Z M23.5385435,22.5564095 L28.0639529,25.1218557 C28.920785,25.6075923 28.9286208,26.3905942 28.0639529,26.8806589 L23.4240551,29.5103973 L20.3976615,26.0566232 L23.5385435,22.5564095 L23.5385435,22.5564095 Z" id="google-play" fill="#F3F8FF"></path>
            </g>
        </g>
    </g>
</svg>