<?xml version="1.0" encoding="UTF-8"?>
<svg width="435px" height="334px" viewBox="0 0 435 334" version="1.1" xmlns="http://www.w3.org/2000/svg" xmlns:xlink="http://www.w3.org/1999/xlink">
    <!-- Generator: Sketch 49 (51002) - http://www.bohemiancoding.com/sketch -->
    <title>illustration-6</title>
    <desc>Created with Sketch.</desc>
    <defs>
        <polygon id="path-1" points="0 0.177659218 52.9488575 0.177659218 52.9488575 49 0 49"></polygon>
    </defs>
    <g id="Page-1" stroke="none" stroke-width="1" fill="none" fill-rule="evenodd">
        <g id="Desktop-HD-Copy-2" transform="translate(-777.000000, -1248.000000)">
            <g id="illustration-6" transform="translate(778.000000, 1249.000000)">
                <polygon id="Fill-138" fill="#FFFFFF" points="20 206 99 206 99 127 20 127"></polygon>
                <polygon id="Stroke-139" stroke="#747FEB" stroke-width="2" stroke-linecap="round" stroke-linejoin="round" points="20 206 99 206 99 127 20 127"></polygon>
                <polygon id="Fill-140" fill="#FFFFFF" points="262.571116 198 244 179.428884 290.428884 133 305.905179 136.094821 309 151.571116"></polygon>
                <polygon id="Stroke-141" stroke="#747FEB" stroke-width="2" stroke-linecap="round" stroke-linejoin="round" points="262.571116 198 244 179.428884 290.428884 133 305.905179 136.094821 309 151.571116"></polygon>
                <polygon id="Fill-142" fill="#FFFFFF" points="174 264 271 264 271 87 174 87"></polygon>
                <polygon id="Fill-143" fill="#CCEFFF" points="159 34 158.848655 10 136 22.169291"></polygon>
                <polygon id="Stroke-144" stroke="#747FEB" stroke-width="2" stroke-linecap="round" stroke-linejoin="round" points="159 34 158.848655 10 136 22.169291"></polygon>
                <polygon id="Fill-145" fill="#CCEFFF" points="365.144065 99 370 85 354 87.6162718"></polygon>
                <polygon id="Stroke-146" stroke="#747FEB" stroke-width="2" stroke-linecap="round" stroke-linejoin="round" points="365.144065 99 370 85 354 87.6162718"></polygon>
                <polygon id="Fill-147" fill="#CCEFFF" points="110.144065 295 115 281 99 283.616272"></polygon>
                <polygon id="Stroke-148" stroke="#747FEB" stroke-width="2" stroke-linecap="round" stroke-linejoin="round" points="110.144065 295 115 281 99 283.616272"></polygon>
                <polygon id="Fill-149" fill="#CCEFFF" points="229.729497 49 237 36.2051495 221 36"></polygon>
                <polygon id="Stroke-150" stroke="#747FEB" stroke-width="2" stroke-linecap="round" stroke-linejoin="round" points="229.729497 49 237 36.2051495 221 36"></polygon>
                <polyline id="Stroke-151" stroke="#747FEB" stroke-width="2" stroke-linecap="round" stroke-linejoin="round" points="79 46 84.9734289 55.0560748 95.5143856 51.9719626 101.485614 61.0280374 112.026571 57.9439252 118 67"></polyline>
                <polyline id="Stroke-152" stroke="#747FEB" stroke-width="2" stroke-linecap="round" stroke-linejoin="round" points="324 271 327.597251 281.332702 338.702486 280.832557 342.297514 291.165259 353.402749 290.667298 357 301"></polyline>
                <polyline id="Stroke-153" stroke="#747FEB" stroke-width="2" stroke-linecap="round" stroke-linejoin="round" points="42 266.025533 52.7546051 268 57.6216047 258.011651 68.3783953 259.986118 73.2453949 250 84 251.974467"></polyline>
                <polyline id="Stroke-154" stroke="#747FEB" stroke-width="2" stroke-linecap="round" stroke-linejoin="round" points="354 46 348.026571 55.0560748 337.485614 51.9719626 331.514386 61.0280374 320.973429 57.9439252 315 67"></polyline>
                <polygon id="Stroke-155" stroke="#747FEB" stroke-width="2" stroke-linejoin="round" points="228 247.714286 221.5 252 215 247.714286 215 241.285714 221.5 237 228 241.285714"></polygon>
                <polygon id="Fill-156" fill="#CCEFFF" points="286.333333 14 278.555556 12.4446889 277 4.66593338 281.666667 0 289.444444 1.55531113 291 9.33406662"></polygon>
                <polygon id="Stroke-157" stroke="#747FEB" stroke-width="2" stroke-linejoin="round" points="286.333333 14 278.555556 12.4446889 277 4.66593338 281.666667 0 289.444444 1.55531113 291 9.33406662"></polygon>
                <polygon id="Fill-158" fill="#CCEFFF" points="376.334067 272 368.555311 270.444689 367 262.665933 371.668133 258 379.444689 259.555311 381 267.334067"></polygon>
                <polygon id="Stroke-159" stroke="#747FEB" stroke-width="2" stroke-linejoin="round" points="376.334067 272 368.555311 270.444689 367 262.665933 371.668133 258 379.444689 259.555311 381 267.334067"></polygon>
                <path d="M20,332 L402,332" id="Stroke-160" stroke="#747FEB" stroke-width="2" stroke-linecap="round" stroke-linejoin="round"></path>
                <path d="M413,332 L420,332" id="Stroke-161" stroke="#747FEB" stroke-width="2" stroke-linecap="round" stroke-linejoin="round"></path>
                <path d="M0,332 L7,332" id="Stroke-162" stroke="#1050FF" stroke-width="2" stroke-linecap="round" stroke-linejoin="round"></path>
                <polygon id="Fill-163" fill="#E7F8FF" points="271 87 271 227 174 227"></polygon>
                <polygon id="Stroke-164" stroke="#747FEB" stroke-width="2" stroke-linecap="round" stroke-linejoin="round" points="174 264 271 264 271 87 174 87"></polygon>
                <path d="M174,226 L271,226" id="Stroke-165" stroke="#747FEB" stroke-width="2" stroke-linecap="round" stroke-linejoin="round"></path>
                <polygon id="Fill-166" fill="#FFFFFF" points="247.877193 331 247.877193 301.796388 272 266.711705 269.807018 263.023428 197.438596 263.023428 197.438596 249.169364 173.315789 233.819816 173.315789 188.867567 160.157895 179 147 189.963963 147 255.747742 173.315789 290.832424 173.315789 331"></polygon>
                <polygon id="Fill-167" fill="#FFFFFF" points="290.571429 197 295 210 290.571429 223 239.642857 223 233 210 239.642857 197"></polygon>
                <polygon id="Stroke-168" stroke="#747FEB" stroke-width="2" stroke-linecap="round" stroke-linejoin="round" points="290.571429 197 295 210 290.571429 223 239.642857 223 233 210 239.642857 197"></polygon>
                <polygon id="Fill-169" fill="#FFFFFF" points="285.583333 223 290 236 285.583333 249 243.625 249 237 236 243.625 223"></polygon>
                <polygon id="Stroke-170" stroke="#747FEB" stroke-width="2" stroke-linecap="round" stroke-linejoin="round" points="285.583333 223 290 236 285.583333 249 243.625 249 237 236 243.625 223"></polygon>
                <g id="Page-1" transform="translate(33.000000, 141.000000)">
                    <g id="Group-3">
                        <mask id="mask-2" fill="white">
                            <use xlink:href="#path-1"></use>
                        </mask>
                        <g id="Clip-2"></g>
                        <path d="M51.7481508,41.7740056 L43.694034,38.3741173 C43.5538665,38.3149888 43.3959426,38.3119777 43.2536228,38.3664525 L18.5736482,47.7563855 C18.5082726,47.7812961 18.4692624,47.7788324 18.4719528,47.7843073 C18.4665721,47.7771899 18.450699,47.7407821 18.450699,47.6696089 L18.450699,33.193257 L18.450699,23.5095978 C18.450699,23.2060168 18.7146228,22.8192179 18.9941508,22.7132793 L51.6238563,10.3491285 L51.6241254,10.3491285 C51.6897701,10.3242179 51.7287802,10.3266816 51.7266279,10.3220279 C51.7320086,10.3291453 51.7481508,10.3655531 51.7481508,10.4372737 L51.7481508,41.7740056 Z M17.2494553,23.509324 L17.2494553,32.7771676 L9.22547056,35.8220112 C9.13077005,35.8581453 9.04629289,35.9178212 8.98037919,35.995838 L1.20121675,45.1867598 L1.20121675,14.5811955 C1.20121675,14.2778883 1.46540964,13.8908156 1.74466853,13.7848771 L34.3741051,1.42072626 C34.4400188,1.39581564 34.479298,1.39827933 34.4771457,1.39335196 C34.4825264,1.40046927 34.4986685,1.43715084 34.4986685,1.50887151 L34.4986685,15.5338212 L18.5749934,21.5676648 C17.8319173,21.8493464 17.2494553,22.7020559 17.2494553,23.509324 Z M52.4167041,9.32231844 C52.0785264,9.08334078 51.6367701,9.04008939 51.204699,9.20351397 L35.6999122,15.0785866 L35.6999122,1.50887151 C35.6999122,1.03967598 35.5056685,0.633441341 35.1677599,0.394189944 C34.8295822,0.154938547 34.3872878,0.111687151 33.9552168,0.275385475 L1.32551117,12.6395363 C0.58216599,12.9212179 -2.69035533e-05,13.7742011 -2.69035533e-05,14.5811955 L-2.69035533e-05,46.8327765 C-2.69035533e-05,47.0881788 0.156282741,47.3167542 0.391688832,47.4057207 C0.459754822,47.4314525 0.530511168,47.4440447 0.600460406,47.4440447 C0.771836041,47.4440447 0.939176142,47.3693128 1.05566853,47.2316201 L9.78963807,36.9126034 L17.2491863,34.0815531 L17.2491863,47.6696089 C17.2491863,48.1390782 17.4434299,48.5450391 17.7821457,48.7840168 C17.9847294,48.9271844 18.2244401,49 18.4770645,49 C18.6462878,49 18.8208919,48.9674246 18.9941508,48.9014525 L43.4524401,39.5958324 L52.1183437,43.2541341 C52.3034401,43.3321508 52.514633,43.3107989 52.6817041,43.197743 C52.8487751,43.0844134 52.9488563,42.8936145 52.9488563,42.689676 L52.9488563,10.437 C52.9493944,9.96780447 52.7551508,9.56156983 52.4167041,9.32231844 Z" id="Fill-1" fill="#747FEB" mask="url(#mask-2)"></path>
                    </g>
                    <path d="M37.9054613,30.579966 C37.8550118,31.1974112 37.5774047,31.8082458 37.142514,32.2617441 L37.1085213,32.2908315 C36.6110408,32.7982737 35.9662586,33.088354 35.4026812,33.3043937 L32.0169003,34.5456306 L32.0169003,30.5958318 L35.5694073,29.2787033 C36.1855925,29.0938664 36.8770472,28.939439 37.3335206,29.1964654 L37.3559126,29.2112735 L37.35915,29.2110091 C37.7533035,29.4363039 37.9575295,29.9463904 37.9054613,30.579966 Z M32.01717,25.3180629 L35.3964762,24.0707441 C35.9972837,23.8896091 36.6013286,23.758716 36.9504282,24.0242043 C37.4937719,24.4517884 37.5296531,25.4600621 37.0327122,26.2676329 C36.626958,26.8869292 35.9319961,27.2687669 35.4134725,27.4829556 L32.01717,28.7276301 L32.01717,25.3180629 Z M39.4718233,27.9946287 L39.4488918,27.9700366 C39.0722742,27.5712754 38.5035709,27.3515336 37.8326198,27.3409564 C38.9284797,26.3067686 39.5541073,24.8111495 39.3382806,23.6817667 L39.3385504,23.6746271 L39.3366619,23.6640499 C39.1256913,22.400072 38.0400832,21.6887538 36.7049254,21.9325588 L36.6760586,21.9362608 L36.6714723,21.9391696 C36.2576246,21.9976087 35.8394604,22.1160736 35.5030406,22.2215814 L35.5027708,21.2265293 C35.4833464,21.0393125 35.3595159,20.9605122 35.1641927,21.0189513 L33.8241789,21.5105277 C33.6293953,21.6009629 33.4996295,21.7762804 33.4861403,21.9761898 L33.491536,22.9360727 L30.3380385,24.0926918 C30.143255,24.1833915 30.013759,24.3587089 30,24.5572962 L30.0002698,36.7597074 C30.0194244,36.9437511 30.1497298,37.0230802 30.3477507,36.9638478 L33.4858706,35.813575 L33.4861403,36.776631 C33.505295,36.9606746 33.6358701,37.0397394 33.8336213,36.9807714 L35.1736351,36.4889306 C35.3657209,36.3998175 35.4887421,36.2303175 35.5027708,36.0277637 L35.5027708,35.0615346 C36.5840625,34.6246953 37.8013249,34.0220582 38.7633723,32.8908244 C40.0842315,31.2325805 40.3909752,29.0949241 39.4699349,28.0044126 L39.4718233,27.9946287 Z" id="Fill-4" fill="#747FEB"></path>
                </g>
                <polyline id="Stroke-178" stroke="#747FEB" stroke-width="2" stroke-linecap="round" stroke-linejoin="round" points="110 152 110 218 44 218"></polyline>
                <polygon id="Fill-179" fill="#FFFFFF" points="433 200.320988 358.526 200.320988 341 219 341 130 433 130"></polygon>
                <polygon id="Fill-181" fill="#CCEFFF" points="354.145048 191 341 205.04 341 218 358.526 199.64 433 199.64 433 191"></polygon>
                <polygon id="Stroke-183" stroke="#747FEB" stroke-width="2" stroke-linecap="round" stroke-linejoin="round" points="433 200.320988 358.526 200.320988 341 219 341 130 433 130"></polygon>
                <path d="M358,183 L424,183" id="Stroke-186" stroke="#747FEB" stroke-width="2" stroke-linecap="round" stroke-linejoin="round"></path>
                <g id="if_recycle_transaction_Bitcoin_card_currency_money_payment_finance_1007386" transform="translate(366.000000, 136.000000)" fill="#747FEB" fill-rule="nonzero">
                    <path d="M22.6996709,0.00767387209 C22.4800459,-0.00708696779 22.2604849,-0.000550839007 22.0399957,0.0272614843 C20.2805157,0.24918699 18.7913392,1.68940157 17.6606427,3.7377353 L15.3989006,7.63289326 C15.2553399,7.85399303 15.2440564,8.13694131 15.3695469,8.36897652 C15.4950373,8.60101174 15.7369046,8.74441903 15.9987588,8.7420472 C16.260613,8.73967537 16.4998926,8.59190995 16.621239,8.35763893 L18.8857527,4.46248097 C18.8885968,4.45692135 18.8913686,4.45132435 18.8940674,4.44569142 C19.9010638,2.61570144 21.1381201,1.5817922 22.2146157,1.44597207 C23.2911127,1.3098654 24.4809416,1.92620927 25.6931531,4.08471777 L28.9915275,10.9488143 L22.9463558,9.16073532 C22.6998559,9.07734721 22.4279222,9.13671069 22.2375693,9.3154643 C22.0472164,9.49421792 21.9689186,9.76374445 22.0334886,10.0179765 C22.0980586,10.2722085 22.2951591,10.4704452 22.5472248,10.534674 L30.1390294,12.7788672 C30.3213633,12.8321227 30.5172306,12.8094144 30.6828598,12.7158171 C30.8484891,12.6222197 30.9700736,12.4655355 31.0204425,12.2807793 L33.1269671,4.58280557 C33.1905345,4.36119126 33.1444935,4.12223298 33.003276,3.94083347 C32.8620585,3.75943395 32.6429493,3.65779623 32.4146294,3.6677792 C32.1031457,3.68091953 31.8366352,3.89775626 31.7577272,4.20224415 L30.1501156,10.0841565 L26.9487532,3.41873537 C26.9426827,3.40548028 26.9362122,3.39241567 26.9293508,3.37955986 C25.7353269,1.25355578 24.2370481,0.110999035 22.6996709,0.00767387209 Z M22.1176052,12.322753 C16.2379555,12.322753 11.5046018,17.1474429 11.5046016,23.0652176 C11.5046016,28.9851413 16.2379796,33.8132804 22.1176052,33.8132804 C27.9958046,33.8132804 32.7915864,28.990299 32.7915864,23.0652176 C32.7905995,22.9749735 32.7727319,22.8857302 32.7389238,22.8021835 C32.5913127,17.0074779 27.9033311,12.322753 22.1176052,12.322753 Z M22.1176052,13.7554555 C27.2293979,13.7554555 31.372454,17.9208153 31.372454,23.0652176 C31.372454,28.2119122 27.2294221,32.3805786 22.1176052,32.3805786 C17.0041478,32.3805786 12.9237337,28.2172131 12.9237337,23.0652176 C12.9237337,17.9156575 17.0041734,13.7554555 22.1176052,13.7554555 Z M21.4385277,16.620859 L21.4385277,18.0535608 L19.3098292,18.0535608 C18.9179628,18.0536004 18.6003022,18.3742984 18.600263,18.7699117 L18.600263,23.0680171 L18.600263,27.3661224 C18.6003022,27.7617357 18.9179628,28.0824337 19.3098292,28.0824733 L21.4385277,28.0824733 L21.4385277,29.5151751 L22.85766,29.5151751 L22.85766,28.0824733 L23.5505954,28.0824733 L24.1576079,28.0824733 L24.7646191,28.0824733 C26.2177808,28.0824733 27.2924486,26.7360187 27.2924486,25.2170697 C27.2924486,24.0495768 26.6551219,22.989346 25.7014692,22.558736 C25.9602424,22.0821879 26.1033718,21.5237852 26.1033718,20.9189644 C26.1033718,20.1862793 25.9015485,19.5090196 25.5268493,18.9797796 C25.1521487,18.4505396 24.5599689,18.0535608 23.8721183,18.0535608 L23.3648891,18.0535608 L22.85766,18.0535608 L22.85766,16.620859 L21.4385277,16.620859 Z M20.0193953,19.4862626 L21.4385277,19.4862626 L21.4385277,22.3516662 L20.0193953,22.3516662 L20.0193953,19.4862626 Z M22.85766,19.4862626 L23.3648891,19.4862626 L23.8721183,19.4862626 C24.0271329,19.4862626 24.1985159,19.5665154 24.3738042,19.8136565 C24.5490926,20.0613706 24.6842394,20.4610715 24.6842394,20.9189644 C24.6842394,21.3768559 24.5490955,21.7739019 24.3738042,22.0214728 C24.1985159,22.269187 24.0271329,22.3516662 23.8721183,22.3516662 L23.5505954,22.3516662 L22.85766,22.3516662 L22.85766,19.4862626 Z M8.42242357,21.7024717 C8.39837035,21.7021712 8.37431755,21.7031056 8.35035833,21.7052712 C8.30633918,21.7086263 8.26272615,21.7161208 8.22008638,21.7276572 L0.561761002,23.7367965 C0.306347135,23.7917424 0.101464762,23.9838728 0.02837709,24.2369821 C-0.0447105822,24.4900915 0.0258082679,24.7632746 0.211963504,24.9481777 C0.39811874,25.1330808 0.669825502,25.1998216 0.919315794,25.1219283 L6.77323668,23.5856923 L2.65442674,29.7166473 C2.64574253,29.728511 2.63742335,29.7406427 2.62948109,29.753025 C1.22699958,32.1606804 1.12407857,34.271543 2.19708921,35.7020957 C3.27009985,37.1326484 5.25496759,37.7135416 7.5853573,37.6748587 L12.0423198,37.7084384 C12.2977914,37.7134915 12.5362283,37.5794965 12.6665772,37.3576226 C12.7969262,37.1357488 12.7990581,36.860259 12.6721587,36.6363562 C12.5452594,36.4124533 12.3089254,36.2747137 12.0534068,36.2757366 L7.57981374,36.2421569 C7.57427047,36.2420913 7.56872663,36.2420913 7.56318336,36.2421569 C5.48939804,36.2765418 3.98264677,35.7102392 3.32796029,34.8374372 C2.67501552,33.9669276 2.61066879,32.6207567 3.84627624,30.4917619 L8.08981443,24.1705255 L9.57824044,30.3462538 C9.63815043,30.5951833 9.82505405,30.7929365 10.0685465,30.8650215 C10.312039,30.9371066 10.575128,30.8725722 10.7587105,30.6957278 C10.9422929,30.5188833 11.0184783,30.2565958 10.9585683,30.0076663 L9.08764185,22.2509286 C9.01309616,21.9380174 8.74101577,21.7136935 8.42242357,21.7024717 Z M20.0193953,23.7843679 L21.4385277,23.7843679 L21.4385277,26.6497715 L20.0193953,26.6497715 L20.0193953,23.7843679 Z M22.85766,23.7843679 L23.5505954,23.7843679 L23.8721183,23.7843679 L24.1576079,23.7843679 L24.7646191,23.7843679 C25.3260875,23.7843679 25.8733162,24.3548698 25.8733162,25.2170697 C25.8733162,26.0792682 25.3260875,26.6497715 24.7646191,26.6497715 L24.1576079,26.6497715 L23.5505954,26.6497715 L22.85766,26.6497715 L22.85766,23.7843679 Z M37.2152887,24.9876125 L37.2152887,24.9932101 C36.9519401,24.9972719 36.7124815,25.1482474 36.5933014,25.385365 C36.4741212,25.6224825 36.4948257,25.906734 36.6470809,26.1237006 L39.1749103,29.848165 C39.1776297,29.8528607 39.1804019,29.8575249 39.1832264,29.8621568 C40.3950349,31.5609113 40.7947165,33.1307398 40.4582274,34.1714558 C40.1222621,35.2105944 39.0623746,36.0325928 36.6193638,36.222569 L29.066364,36.3093148 L33.2322937,31.557894 C33.4215027,31.3494807 33.4716164,31.0482225 33.3602238,30.7888438 C33.2488311,30.5294651 32.9967646,30.3604747 32.7167499,30.3574461 C32.5072469,30.3550126 32.3073865,30.446168 32.170716,30.6064898 L26.9293508,36.5835425 C26.8030187,36.7268962 26.738926,36.9154196 26.7514302,37.1068808 C26.7639345,37.2983419 26.8519905,37.4767376 26.9958726,37.6021047 L33.0022395,42.8012447 C33.1920478,42.984561 33.4666333,43.047032 33.7159792,42.9636278 C33.9653251,42.8802237 34.1486402,42.6645887 34.1924765,42.4031202 C34.2363128,42.1416518 34.133499,41.8771243 33.925229,41.7155247 L29.3379959,37.7392185 L36.6747979,37.6552708 C36.6895769,37.6557372 36.7043668,37.6557372 36.7191458,37.6552708 C39.478274,37.4433742 41.2537618,36.3222937 41.8052948,34.6163756 C42.3554357,32.9147557 41.6995269,30.9414512 40.3445862,29.0366742 L40.339043,29.0226838 L37.8167567,25.3038141 C37.6823494,25.1022657 37.4559178,24.9832269 37.2152887,24.9876125 Z" id="path5678-62-4-7-9"></path>
                </g>
                <polygon id="Fill-188" fill="#E7F8FF" points="198 276 198 264 242.902174 264 249 276"></polygon>
                <path d="M198,273 L198,264 L198,273 Z" id="Fill-189" fill="#FFFFFF"></path>
                <path d="M198,273 L198,264" id="Stroke-190" stroke="#747FEB" stroke-width="2" stroke-linecap="round" stroke-linejoin="round"></path>
                <polygon id="Stroke-191" stroke="#747FEB" stroke-width="2" stroke-linecap="round" stroke-linejoin="round" points="247.877193 331 247.877193 301.796388 272 266.711705 269.807018 263.023428 197.438596 263.023428 197.438596 249.169364 173.315789 233.819816 173.315789 188.867567 160.157895 179 147 189.963963 147 255.747742 173.315789 290.832424 173.315789 331"></polygon>
                <polygon id="Fill-192" fill="#FFFFFF" points="281.6 249 286 262 281.6 275 248.6 275 242 262 248.6 249"></polygon>
                <polygon id="Stroke-193" stroke="#747FEB" stroke-width="2" stroke-linecap="round" stroke-linejoin="round" points="281.6 249 286 262 281.6 275 248.6 275 242 262 248.6 249"></polygon>
            </g>
        </g>
    </g>
</svg>